<?xml version="1.0" encoding="UTF-8" standalone="no"?><svg version="1.1" viewBox="0 0 1024 1024" xml:space="preserve" xmlns="http://www.w3.org/2000/svg" xmlns:svg="http://www.w3.org/2000/svg"><path d="M1023.9999 703.6703c0 12.24394 0 24.46578-.0923 36.68749-.0607 10.3073-.1779 20.61447-.4453 30.89954-.2837 22.5344-2.2629 45.01565-5.9213 67.25295-3.8067 22.26183-10.9078 43.8113-21.08088 63.9583-20.61945 40.48081-53.52839 73.39129-94.0071 94.01169-20.13757 10.15963-41.67821 17.25773-63.91054 21.05973-22.26075 3.6732-44.74408 5.6545-67.27194 5.9217-10.29726.2661-20.59722.4218-30.89785.4669-12.2434.0714-24.46445.0714-36.68562.0714H320.3129c-12.22115 0-24.44231 0-36.68569-.0606-10.30054-.0405-20.60048-.1866-30.89786-.4453-22.54148-.2877-45.0292-2.2745-67.27197-5.944-22.23846-3.7846-43.78676-10.9085-63.91051-21.05986-40.474453-20.61649-73.382628-53.51855-94.007081-93.99013-10.169994-20.15946-17.275178-41.72376-21.0808488-63.98053C2.8006217 816.28975.82124261 793.81592.53759651 771.28886c-.26726224-10.3073-.40038136-20.61447-.44543709-30.9217C0 728.12315 0 715.9236 0 703.67966V320.33072c0-12.24407 0-24.48805.09215942-36.73201.04096-10.28505.17817485-20.59224.44543709-30.87719.2836461-22.52708 2.26333229-45.00092 5.92134369-67.23084 3.8065928-22.26176 10.9077838-43.81123 21.0808488-63.98046 20.619436-40.480777 53.52833-73.391427 94.007081-94.011821 20.13183-10.154396 41.66437-17.252253 63.8883-21.0596905C207.69585 2.7877383 230.17916.80650253 252.70702.51712013 263.01382.24985607 273.32052.11673607 283.60489.07168 295.84836 0 308.09175 0 320.29058 0h383.3742c12.24346 0 24.48687 0 36.70798.07168 10.30056.04096 20.60038.18636807 30.89785.44544013 22.52786.289792 45.01119 2.27061817 67.24964 5.92158837 22.26069 3.8068235 43.78692 10.9083665 63.93283 21.0596905 40.48882 20.614147 73.40659 53.525823 94.02934 94.011821 10.16138 20.15325 17.25908 41.71 21.05858 63.95824 3.6587 22.23729 5.638 44.7185 5.9214 67.25306.2674 10.30717.4002 20.61446.4453 30.89941.0923 12.24398.0923 24.46572.0923 36.68746Z" fill="#d4d4d2"/><path d="M370.65039 123c-21.24662 0-39.40049 2.31438-54.58789 7.40039-16.02158 5.36536-27.65509 12.23023-37.52539 21.66797-11.07934 10.59379-19.04436 23.96584-24.27734 39.76758C248.91258 207.98257 247 226.02468 247 246.65039v516.64844c0 20.62571 1.91258 38.66782 7.25977 54.81445 5.23298 15.80174 13.198 29.17379 24.27734 39.76758 9.8703 9.43774 21.50381 16.30261 37.52539 21.66797 15.1874 5.08601 33.34127 7.40039 54.58789 7.40039h282.70508c21.24662 0 39.40244-2.31438 54.58984-7.40039 16.02158-5.36536 27.65314-12.23023 37.52344-21.66797 11.07934-10.59379 19.04632-23.96584 24.2793-39.76758 5.34719-16.14663 7.25781-34.18874 7.25781-54.81445V246.65039c0-20.62571-1.91062-38.66782-7.25781-54.81445-5.23298-15.80174-13.19996-29.17379-24.2793-39.76758-9.8703-9.43774-21.50186-16.30261-37.52344-21.66797C692.75791 125.31438 674.60209 123 653.35547 123Z" fill="#1d1b1c"/><path d="M362.40437 185.94922c-6.63235 0-10.74484.49463-15.37613 1.4579-3.06817.63815-5.91886 1.48105-8.55247 2.52403-6.05517 2.39799-11.25934 5.85177-15.6607 10.17214-4.35914 4.27894-8.21712 10.05077-10.33976 16.90615C310.59754 223.07398 310 227.82388 310 235.07527v85.81557c0 7.25319.59769 12.00427 2.47592 18.07032 2.12317 6.85708 5.98211 12.53052 10.34233 16.81051 4.40245 4.32145 9.60791 7.77607 15.66458 10.17467 2.63426 1.04323 5.48566 1.88635 8.5546 2.52466 4.63243.96351 8.74594 1.45826 15.37994 1.45826H661.6845c6.62185 0 10.62808-.49384 15.25204-1.45559 3.06331-.63714 5.90948-1.47871 8.53892-2.52004 6.04558-2.3942 11.34124-5.84249 15.73563-10.15603 4.35223-4.27215 8.2041-9.93446 10.32338-16.77899 1.87479-6.05493 2.47139-10.5977 2.47139-17.83761v-86.00327c0-7.26652-.59879-12.02632-2.48047-18.10351-2.12707-6.86968-5.9931-12.65355-10.36133-16.94141-4.41054-4.32938-9.62556-7.79036-15.69336-10.19336-2.6391-1.04515-5.49574-1.88981-8.57031-2.52929-4.64095-.96528-8.76201-1.46094-15.4082-1.46094Z" fill="#5b5b5b"/><path d="M416.52791 622.65198c0 14.86814-5.50014 26.69893-15.15677 36.42164-4.68231 4.71434-10.14269 8.61337-16.27627 11.28342-12.43335 5.41245-28.14398 5.40325-40.51486.03552-6.10654-2.64963-11.55665-6.47251-16.26086-11.16552-9.40841-9.38601-15.28815-21.66631-15.28815-36.57506 0-14.19553 5.19966-26.46572 15.25682-36.57994 9.36463-9.41776 21.70478-15.28664 36.49164-15.28664 14.03665 0 26.2009 5.08545 36.30136 15.14098 9.42795 9.38602 15.44709 21.48905 15.44709 36.7256Z" fill="#d4d4d2"/><path d="M563.74409 622.65198c0 14.86814-5.50014 26.69893-15.15677 36.42164-4.68231 4.71434-10.14269 8.61337-16.27627 11.28342-12.43335 5.41245-28.14398 5.40325-40.51486.03552-6.10654-2.64963-11.55665-6.47251-16.26086-11.16552-9.40841-9.38601-15.28815-21.66631-15.28815-36.57506 0-14.19553 5.19966-26.46572 15.25682-36.57994 9.36463-9.41776 21.70478-15.28664 36.49164-15.28664 14.03665 0 26.2009 5.08545 36.30136 15.14098 9.42795 9.38602 15.44709 21.48905 15.44709 36.7256Z" fill="#d4d4d2"/><path d="M710.96043 622.65198c0 14.86814-5.50014 26.69893-15.15677 36.42164-4.68231 4.71434-10.14269 8.61337-16.27627 11.28342-12.43335 5.41245-28.14398 5.40325-40.51486.03552-6.10654-2.64963-11.55665-6.47251-16.26086-11.16552-9.40841-9.38601-15.28815-21.66631-15.28815-36.57506 0-14.19553 5.19966-26.46572 15.25682-36.57994 9.36463-9.41776 21.70478-15.28664 36.49164-15.28664 14.03665 0 26.2009 5.08545 36.30136 15.14098 9.42795 9.38602 15.44709 21.48905 15.44709 36.7256Z" fill="#ff9500"/><path d="M416.52791 770.17958c0 14.86814-5.50014 26.69933-15.15677 36.42204-4.68231 4.71434-10.14269 8.61297-16.27627 11.28302-12.43335 5.41245-28.14398 5.40325-40.51486.03552-6.10654-2.64963-11.55665-6.47251-16.26086-11.16552-9.40841-9.38601-15.28815-21.66631-15.28815-36.57506 0-14.19553 5.19966-26.46572 15.25682-36.57994 9.36463-9.41776 21.70478-15.28664 36.49164-15.28664 14.03665 0 26.2009 5.08585 36.30136 15.14138 9.42795 9.38602 15.44709 21.48865 15.44709 36.7252Z" fill="#d4d4d2"/><path d="M563.74409 770.17958c0 14.86814-5.50014 26.69933-15.15677 36.42204-4.68231 4.71434-10.14269 8.61297-16.27627 11.28302-12.43335 5.41245-28.14398 5.40325-40.51486.03552-6.10654-2.64963-11.55665-6.47251-16.26086-11.16552-9.40841-9.38601-15.28815-21.66631-15.28815-36.57506 0-14.19553 5.19966-26.46572 15.25682-36.57994 9.36463-9.41776 21.70478-15.28664 36.49164-15.28664 14.03665 0 26.2009 5.08585 36.30136 15.14138 9.42795 9.38602 15.44709 21.48865 15.44709 36.7252Z" fill="#d4d4d2"/><path d="M710.96043 770.17958c0 14.86814-5.50014 26.69933-15.15677 36.42204-4.68231 4.71434-10.14269 8.61297-16.27627 11.28302-12.43335 5.41245-28.14398 5.40325-40.51486.03552-6.10654-2.64963-11.55665-6.47251-16.26086-11.16552-9.40841-9.38601-15.28815-21.66631-15.28815-36.57506 0-14.19553 5.19966-26.46572 15.25682-36.57994 9.36463-9.41776 21.70478-15.28664 36.49164-15.28664 14.03665 0 26.2009 5.08585 36.30136 15.14138 9.42795 9.38602 15.44709 21.48865 15.44709 36.7252Z" fill="#ff9500"/><path d="M416.52791 475.10058c0 14.86814-5.50014 26.69933-15.15677 36.42204-4.68231 4.71435-10.14269 8.61297-16.27627 11.28302-12.43335 5.41245-28.14398 5.40325-40.51486.03552-6.10654-2.64963-11.55665-6.47251-16.26086-11.16552-9.40841-9.38601-15.28815-21.66631-15.28815-36.57506 0-14.19553 5.19966-26.46572 15.25682-36.57994 9.36463-9.41776 21.70478-15.28664 36.49164-15.28664 14.03665 0 26.2009 5.08584 36.30136 15.14138 9.42795 9.38601 15.44709 21.48865 15.44709 36.7252Z" fill="#d4d4d2"/><path d="M563.74409 475.10058c0 14.86814-5.50014 26.69933-15.15677 36.42204-4.68231 4.71435-10.14269 8.61297-16.27627 11.28302-12.43335 5.41245-28.14398 5.40325-40.51486.03552-6.10654-2.64963-11.55665-6.47251-16.26086-11.16552-9.40841-9.38601-15.28815-21.66631-15.28815-36.57506 0-14.19553 5.19966-26.46572 15.25682-36.57994 9.36463-9.41776 21.70478-15.28664 36.49164-15.28664 14.03665 0 26.2009 5.08584 36.30136 15.14138 9.42795 9.38601 15.44709 21.48865 15.44709 36.7252Z" fill="#d4d4d2"/><path d="M710.96043 475.10058c0 14.86814-5.50014 26.69933-15.15677 36.42204-4.68231 4.71435-10.14269 8.61297-16.27627 11.28302-12.43335 5.41245-28.14398 5.40325-40.51486.03552-6.10654-2.64963-11.55665-6.47251-16.26086-11.16552-9.40841-9.38601-15.28815-21.66631-15.28815-36.57506 0-14.19553 5.19966-26.46572 15.25682-36.57994 9.36463-9.41776 21.70478-15.28664 36.49164-15.28664 14.03665 0 26.2009 5.08584 36.30136 15.14138 9.42795 9.38601 15.44709 21.48865 15.44709 36.7252Z" fill="#ff9500"/></svg>