<?xml version="1.0" encoding="utf-8"?>
<!-- Generator: Adobe Illustrator 27.0.1, SVG Export Plug-In . SVG Version: 6.00 Build 0)  -->
<svg version="1.1" id="Layer_2_00000108292826096171909780000013392327523223258496_"
	 xmlns="http://www.w3.org/2000/svg" xmlns:xlink="http://www.w3.org/1999/xlink" x="0px" y="0px" viewBox="0 0 720 394.8"
	 style="enable-background:new 0 0 720 394.8;" xml:space="preserve">
<style type="text/css">
	.st0{fill:#FFFFFF;}
	.st1{fill:#E8E8E8;}
	.st2{fill:#00CCCC;}
	.st3{fill:#3B4E63;}
	.st4{fill:#73808F;}
</style>
<g id="Layer_1-2">
	<g>
		<g>
			<path class="st0" d="M293.7,231.9l-0.1-127.5c2-2.7,28.8-6.4,73.8-6.4s71.8,3.7,73.7,6.1v127.8c0,41.8-67,70.8-73.7,73.6
				C360.7,302.7,293.7,273.7,293.7,231.9L293.7,231.9z"/>
			<path class="st1" d="M367.5,66.5c-71.1,0-128.7,57.6-128.7,128.7S296.4,324,367.5,324s128.7-57.6,128.7-128.7
				S438.6,66.5,367.5,66.5z M442.7,231.9c0,45.3-75.2,75.2-75.2,75.2s-75.2-29.9-75.2-75.2V104c0-4.2,33.7-7.5,75.2-7.5
				s75.2,3.4,75.2,7.5V231.9z"/>
			<g>
				<path class="st2" d="M367.5,5.7c-104.6,0-189.6,85.1-189.6,189.6s85,189.6,189.6,189.6s189.6-85,189.6-189.6S472,5.7,367.5,5.7z
					 M504.7,195.2c0,75.7-61.6,137.3-137.3,137.3s-137.3-61.6-137.3-137.3S291.8,58,367.5,58S504.7,119.6,504.7,195.2L504.7,195.2z"
					/>
				<g>
					<path class="st2" d="M304.8,245.8c-1.5-3.3-2.5-6.8-2.9-10.4C302.3,239,303.3,242.4,304.8,245.8z"/>
					<path class="st2" d="M302.7,188.1v43.8c0,18.9,17.9,35.4,32.9,45.9c12.9,9.1,26.3,15.5,31.8,17.9c5.5-2.5,18.9-8.9,31.8-17.9
						c15-10.5,32.9-27,32.9-45.9v-43.8c-11.5-2.5-36.8-4.2-64.8-4.2S314.2,185.6,302.7,188.1L302.7,188.1z"/>
					<path class="st2" d="M364.9,295.6c1,0.4,1.8,0.8,2.6,1.2c0.7-0.3,1.6-0.7,2.6-1.2c-1,0.4-1.8,0.8-2.6,1.2
						C366.7,296.4,365.9,296,364.9,295.6z"/>
					<path class="st2" d="M411.5,269.5c-1.9,1.7-3.9,3.3-5.8,4.8C407.6,272.8,409.6,271.1,411.5,269.5z"/>
					<path class="st2" d="M424.5,255.4c-2.2,3.1-4.8,6-7.5,8.8C419.8,261.4,422.3,258.5,424.5,255.4z"/>
				</g>
				<g>
					<path d="M331.9,159.2c-3.4,0-9.4-0.2-11.1-1.9c-0.6-0.5-0.6-1.1-0.6-1.4l0.8-8.1c-3.3-1.2-6.6-2.3-9.8-3.4
						c-0.5-0.1-0.8-0.6-0.8-1c-0.1-0.5,0.2-0.9,0.6-1.2c7.6-4.9,15.5-9.9,23.4-14.8c0.2-0.1,0.4-0.2,0.7-0.2c0.1,0,0.5,0.1,0.6,0.1
						c7.9,4.2,15.8,8.6,23.4,12.9c0.4,0.2,0.7,0.7,0.6,1.2c0,0.5-0.3,0.9-0.8,1.1c-3.3,1.4-6.6,2.9-9.9,4.3l0.8,7.9
						c0,3.1-7.3,4.1-13.4,4.5l-1.1,0.1C334,159.1,333,159.1,331.9,159.2L331.9,159.2z M323.2,155.7c1,0.3,3,0.7,6.4,0.9l2.4,0
						c1,0,1.9,0,2.9-0.1c6.8-0.3,10.6-1.3,11.9-1.9c-1.2-0.4-4.4-1-9.2-1c-0.8,0-1.6,0-2.5,0.1C328.6,153.9,324.6,155,323.2,155.7
						L323.2,155.7z M337.1,140.1c-0.7,0-1.4,0-2.1,0.1c-6.8,0.3-10.6,1.7-11,2.3l-1,10.6c3-1.2,8.2-1.8,11.9-1.9
						c0.8,0,1.7-0.1,2.5-0.1c2,0,6.6,0.1,9.5,1l-1.1-10.8C345.6,141.2,342.9,140.1,337.1,140.1L337.1,140.1z M321.2,145.2l0.3-3
						c0.1-3.8,12-4.4,13.4-4.5c0.7,0,1.5-0.1,2.2-0.1c2.5,0,8.7,0.2,10.6,2.1c0.6,0.5,0.7,1.1,0.7,1.5l0.3,2.8c2.3-1,4.6-2,6.9-3
						c-6.7-3.8-13.6-7.5-20.5-11.2c-6.9,4.3-13.8,8.6-20.6,13C316.6,143.6,318.9,144.4,321.2,145.2L321.2,145.2z"/>
					<path class="st3" d="M330.6,157.2c0.4,0,0.9,0,1.4,0c0.9,0,1.9,0,2.9-0.1c8.4-0.4,12.6-1.8,12.8-2.5c-0.4-0.6-5.1-1.8-12.8-1.5
						c-7.7,0.3-12.4,1.9-12.8,2.7c0.4,0.5,2.8,1.2,7.4,1.4C329.9,157.1,330.3,157.1,330.6,157.2L330.6,157.2z"/>
					<path class="st3" d="M313.1,142.9c2.8,1,5.7,2,8.5,3l0.4-3.8c0.1-2.7,8.4-3.8,12.8-4c5-0.2,10.7,0.3,12.4,1.9
						c0.4,0.4,0.5,0.8,0.5,1.1l0.4,3.6c2.9-1.2,5.7-2.5,8.6-3.7c-7.1-4-14.4-8-21.8-11.9C327.6,133.7,320.3,138.3,313.1,142.9
						L313.1,142.9z"/>
					<path class="st4" d="M334.9,151.7c4.6-0.2,10.1,0.1,12.7,1.3l-1.2-11.7c-0.2-0.7-3.6-1.7-9.3-1.7c-0.7,0-1.4,0-2.2,0
						c-7,0.3-11.3,1.9-11.5,2.6c0,0,0,0,0,0.1l-1.2,11.7C325.2,152.5,331.2,151.8,334.9,151.7L334.9,151.7z"/>
				</g>
				<g>
					<path d="M367.5-4.3c-110,0-199.6,89.5-199.6,199.6s89.5,199.5,199.6,199.5S567,305.3,567,195.3S477.5-4.3,367.5-4.3z
						 M367.5,390.5c-107.7,0-195.2-87.6-195.2-195.2S259.8,0,367.5,0s195.2,87.6,195.2,195.2S475.1,390.5,367.5,390.5L367.5,390.5z"
						/>
					<path d="M367.5,4.7c-105.1,0-190.5,85.5-190.5,190.5s85.5,190.5,190.5,190.5S558,300.3,558,195.3S472.5,4.7,367.5,4.7z
						 M492.8,334c-34.5,31.2-79,48.3-125.4,48.3s-90.8-17.1-125.3-48.2c-33.9-30.6-55.4-72.3-60.6-117.4l10.6-0.1
						c3.1,20,9.6,39,19.2,56.5c0.2,0.3,0.5,0.5,0.8,0.5c0.1,0,0.3,0,0.4-0.1c0.5-0.2,0.6-0.8,0.4-1.2c-8.4-17.5-13.7-36.3-15.8-55.7
						l4.9,0c3.1,18.4,9.1,35.9,18,52.1c0.2,0.3,0.5,0.5,0.8,0.5c0.1,0,0.3,0,0.4-0.1c0.4-0.2,0.6-0.8,0.4-1.2
						c-7.7-16.2-12.6-33.4-14.7-51.3l5,0c3,16.8,8.7,32.9,16.8,47.7c0.2,0.3,0.5,0.5,0.8,0.5c0.1,0,0.3,0,0.4-0.1
						c0.4-0.2,0.6-0.8,0.4-1.2c-7-14.8-11.5-30.5-13.5-46.9l12.1-0.1c10.3,67.7,69.6,118.7,138.2,118.7c33.7,0,66.2-12.2,91.7-34.3
						c25-21.8,41.5-51.6,46.5-84.1l12.1-0.1c-2,16.3-6.5,32-13.5,46.7c-0.2,0.5,0,1,0.4,1.2c0.1,0.1,0.3,0.1,0.4,0.1
						c0.3,0,0.6-0.2,0.8-0.5c8.2-14.8,13.8-30.8,16.8-47.6l5,0c-2,17.9-6.9,35.1-14.6,51.3c-0.2,0.5,0,1,0.4,1.2
						c0.1,0.1,0.3,0.1,0.4,0.1c0.3,0,0.6-0.2,0.8-0.5c8.9-16.2,14.9-33.7,18-52.1l5,0c-2.1,19.5-7.4,38.2-15.8,55.8
						c-0.2,0.5,0,1,0.4,1.2c0.1,0.1,0.3,0.1,0.4,0.1c0.3,0,0.6-0.2,0.8-0.5c9.6-17.6,16.1-36.7,19.2-56.7l10.6-0.1
						C548.2,261.6,526.8,303.3,492.8,334L492.8,334z M242.1,56.5c34.5-31.2,79-48.3,125.4-48.3s90.8,17.1,125.3,48.2
						c33.9,30.6,55.4,72.3,60.6,117.4l-10.1,0.1l0-0.3c-2.9-21-9.5-41-19.6-59.5c-0.2-0.3-0.5-0.5-0.8-0.5c-0.1,0-0.3,0-0.4,0.1
						c-0.5,0.2-0.6,0.8-0.4,1.2c8.9,18.6,14.4,38.5,16.2,59l-4.8,0l-0.1-0.4c-2.9-19.4-9.1-37.9-18.5-55c-0.2-0.3-0.5-0.5-0.8-0.5
						c-0.1,0-0.3,0-0.4,0.1c-0.4,0.2-0.6,0.8-0.4,1.2c8.2,17.3,13.3,35.6,15,54.6l-4.8,0l-0.1-0.4c-2.8-17.8-8.7-34.8-17.3-50.5
						c-0.2-0.3-0.5-0.5-0.8-0.5c-0.1,0-0.3,0-0.4,0.1c-0.4,0.2-0.6,0.8-0.4,1.2c7.5,15.9,12.2,32.8,13.9,50.2l-12.5,0.1
						c-10.3-67.7-69.6-118.7-138.2-118.7s-127.7,50.8-138.2,118.4l-12.5,0.1c1.7-17.4,6.4-34.2,13.9-50c0.2-0.4,0-1-0.4-1.2
						c-0.1-0.1-0.3-0.1-0.4-0.1c-0.3,0-0.6,0.2-0.8,0.5c-8.7,15.7-14.5,32.7-17.3,50.4l-0.1,0.5l-4.8,0c1.7-18.9,6.8-37.3,15-54.6
						c0.2-0.4,0-1-0.4-1.2c-0.1-0.1-0.3-0.1-0.4-0.1c-0.3,0-0.6,0.2-0.8,0.5c-9.4,17.1-15.6,35.6-18.5,54.9l-0.1,0.5l-4.8,0
						c1.8-20.6,7.2-40.4,16.2-59.1c0.2-0.4,0-1-0.4-1.2c-0.1-0.1-0.3-0.1-0.4-0.1c-0.3,0-0.6,0.2-0.8,0.5
						c-10.1,18.5-16.7,38.5-19.6,59.5l-0.1,0.4l-10.1,0.1C186.7,128.9,208.2,87.2,242.1,56.5L242.1,56.5z M241.5,55.8
						c4.2-3.8,8.5-7.4,13-10.8C250,48.4,245.6,52,241.5,55.8z M505.1,214.1c0.8-6.2,1.3-12.5,1.3-18.9
						C506.4,201.7,505.9,208,505.1,214.1L505.1,214.1z M522.7,272.7c1.2-2.2,2.4-4.4,3.5-6.7C525.1,268.3,523.9,270.5,522.7,272.7
						L522.7,272.7z M520.8,222c0.5-2.1,0.9-4.2,1.2-6.3l6.8,0l-6.8,0C521.6,217.8,521.2,219.9,520.8,222c-1.4,6.3-3.1,12.5-5.2,18.5
						C517.7,234.5,519.4,228.3,520.8,222z M228.9,204.7c0.2,3.1,0.5,6.2,0.9,9.2l0,0C229.4,210.8,229.1,207.8,228.9,204.7z
						 M195.8,174.9L195.8,174.9l0.1-0.9c0.7-7.7,1.9-15.4,3.6-22.9c-1.7,7.6-2.9,15.2-3.6,22.9L195.8,174.9z M275.2,93.7
						c3.2-3,6.6-5.8,10.2-8.4c5.3-4,10.9-7.5,16.7-10.7c7.8-4.2,16-7.7,24.6-10.4c12.9-4,26.6-6.2,40.8-6.2
						c14.2,0,27.9,2.2,40.8,6.2c8.6,2.7,16.8,6.2,24.6,10.4c5.8,3.2,11.4,6.8,16.7,10.7c3.5,2.6,6.9,5.4,10.2,8.4
						c4.9,4.4,9.4,9.2,13.6,14.3c2.8,3.4,5.4,6.9,7.9,10.6c-2.5-3.7-5.1-7.2-7.9-10.6c-4.2-5.1-8.8-9.9-13.6-14.3
						c-3.2-3-6.6-5.8-10.2-8.4c-5.3-4-10.9-7.5-16.7-10.7c-7.8-4.2-16-7.7-24.6-10.4c-12.9-4-26.6-6.2-40.8-6.2
						c-14.2,0-27.9,2.2-40.8,6.2c-8.6,2.7-16.8,6.2-24.6,10.4c-5.8,3.2-11.4,6.8-16.7,10.7C281.9,87.9,278.5,90.7,275.2,93.7
						c-4.9,4.4-9.4,9.2-13.6,14.3c-2.8,3.4-5.4,6.9-7.9,10.6c2.5-3.7,5.1-7.2,7.9-10.6C265.8,102.9,270.3,98.1,275.2,93.7z
						 M367.5,331.6c-75.2,0-136.4-61.2-136.4-136.4S292.3,58.9,367.5,58.9s136.4,61.2,136.4,136.4S442.6,331.6,367.5,331.6
						L367.5,331.6z M215.7,174.8L215.7,174.8l0.1-0.8L215.7,174.8z M231.1,221.8c-0.4-2.1-0.8-4.1-1.1-6.2l-13.9,0.1l13.9-0.1
						C230.3,217.6,230.7,219.7,231.1,221.8z M240.4,251.4c2.5,5.6,5.4,11,8.5,16.2C245.7,262.4,242.9,257,240.4,251.4
						c-2.5-5.6-4.6-11.4-6.4-17.4C235.8,239.9,237.9,245.7,240.4,251.4z M482.6,272.9c-5.7,8.4-12.2,16.1-19.6,23.1
						C470.3,289,476.9,281.3,482.6,272.9z M491.8,257.1c-1.8,3.6-3.8,7.2-5.9,10.7C488,264.3,490,260.8,491.8,257.1z M500.8,234.2
						c1.8-6,3.1-12.1,4-18.4l14-0.1l-14,0.1C503.9,222.1,502.6,228.2,500.8,234.2s-3.9,11.8-6.4,17.4
						C496.9,246,499.1,240.1,500.8,234.2z M539,174.1c-0.9-10.3-2.7-20.5-5.4-30.4c-1.4-5-3-9.9-4.8-14.8c-1.8-4.9-3.8-9.6-6.1-14.3
						l0,0c2.2,4.7,4.3,9.5,6.1,14.3c1.8,4.9,3.4,9.8,4.8,14.8C536.3,153.6,538.1,163.8,539,174.1l0,0.8l0,0L539,174.1L539,174.1z
						 M506.1,213.2c0.8-6.1,1.2-12.1,1.2-18s-0.4-11.7-1.2-17.7l47.6-0.3c0.6,6,0.9,12,0.9,18s-0.3,11.8-0.8,17.7L506.1,213.2
						L506.1,213.2z M181.2,177.6l47.6-0.3c-0.8,6.1-1.2,12.1-1.2,17.9s0.4,11.7,1.2,17.7l-47.6,0.3c-0.6-6-0.9-12-0.9-18
						S180.6,183.5,181.2,177.6z M205.6,259.2c2,4.6,4.2,9.1,6.6,13.5l0,0C209.8,268.3,207.6,263.8,205.6,259.2
						c-2-4.6-3.8-9.3-5.4-14.1C201.7,249.9,203.5,254.6,205.6,259.2z M554.5,176.4c0.6,6.2,1,12.5,1,18.9
						C555.5,188.9,555.2,182.6,554.5,176.4z M193.2,124.5c-4.3,10.6-7.7,21.6-10,33.1c-1.2,5.7-2.1,11.5-2.7,17.4l0,0
						c0.6-5.9,1.5-11.7,2.7-17.4C185.6,146.2,188.9,135.1,193.2,124.5c3.2-7.9,7-15.6,11.2-22.9
						C200.2,108.9,196.5,116.6,193.2,124.5z M193,215.7c1.1,7.5,2.8,14.9,4.9,22.2C195.8,230.6,194.1,223.2,193,215.7l-12.4,0.1
						L193,215.7z"/>
					<path d="M230.9,103.9c2.3,1.8,4.7,2.8,6.9,3.3s4.4,0.2,6.3-0.6s3.6-2.1,4.9-4c2-2.7,2.8-5.6,2.4-8.6l-3.5,0.1
						c0,1.2-0.1,2.2-0.3,3.2s-0.7,2-1.5,3c-1.3,1.8-3.1,2.7-5.2,2.8s-4.6-0.9-7.4-3c-2.8-2.1-4.5-4.2-5.1-6.3
						c-0.5-2.1-0.1-4,1.2-5.7c1.2-1.7,2.9-2.7,4.9-3.2l-0.9-3.5c-1.4,0.4-2.7,0.9-3.8,1.6c-1.1,0.7-2.2,1.8-3.2,3.2
						c-1.3,1.8-2.1,3.7-2.3,5.8c-0.2,2.1,0.2,4.2,1.3,6.3C226.9,100.3,228.5,102.2,230.9,103.9L230.9,103.9z"/>
					<path d="M245.2,79.7l10.1,10l-2.1,2.1l2.2,2.2l8-8.1l-2.2-2.2l-2.9,2.9l-5.4-5.3c-1-1.8-1.5-3.5-1.6-5.1
						c-0.1-1.5,0.4-2.8,1.4-3.8l3,2.9l2.2-2.2l-4.8-5.8c-0.9,0.5-1.8,1.1-2.5,1.8c-1.2,1.2-1.9,2.5-2.1,3.9c-0.2,1.4,0.1,3,0.7,4.8
						l-3.9-2.8l-4.4,4.5l2.2,2.2L245.2,79.7L245.2,79.7z"/>
					<path d="M259.6,55.2c0.7,0.1,1.4-0.1,2.1-0.6c0.7-0.5,1-1.1,1.2-1.8c0.1-0.7-0.1-1.4-0.5-2c-0.5-0.6-1.1-1-1.8-1.1
						c-0.7-0.1-1.4,0.1-2.1,0.6c-0.7,0.5-1,1.1-1.2,1.8c-0.1,0.7,0.1,1.4,0.6,2C258.3,54.8,258.8,55.1,259.6,55.2L259.6,55.2z"/>
					<polygon points="260.6,65.1 265.3,61.5 273.8,72.8 268.9,76.4 270.8,78.9 283.5,69.3 281.6,66.8 277.2,70.1 266.8,56.4 
						258.7,62.6 					"/>
					<path d="M290.5,65.1l-0.8-1.9c1.9,0.8,3.9,0.7,5.9-0.4c2.2-1.3,3.5-3.1,3.8-5.5c0.3-2.4-0.4-5-1.9-7.8c-1.6-2.9-3.5-4.9-5.5-6
						s-4.1-0.9-6.4,0.3c-1,0.5-1.7,1.3-2.3,2.2s-1,2-1.1,3.1l-5.4-9.7l-3.5,2.5l14,24.9L290.5,65.1L290.5,65.1z M284.4,49.2
						c0.4-0.8,1-1.5,1.7-1.9c1.2-0.7,2.4-0.7,3.6,0c1.2,0.7,2.4,2.2,3.7,4.4c1.2,2.2,1.8,4,1.7,5.5c-0.1,1.5-0.8,2.5-2.1,3.3
						c-1.4,0.8-3,0.8-4.7-0.1l-4.7-8.3C283.8,51,284,50.1,284.4,49.2z"/>
					<path d="M300.7,31.6l7.1,18.1c0.7,1.9,1.8,3.1,3.3,3.8c1.5,0.7,3.2,0.6,5.1-0.1c1.9-0.8,3.4-1.8,4.5-3l-2.1-2.4
						c-0.9,0.8-1.8,1.5-2.8,1.8c-1.9,0.8-3.2,0.3-3.8-1.3l-8.4-21.5l-9.8,3.8l1.2,3L300.7,31.6L300.7,31.6z"/>
					<path d="M345.9,40.5c1.9,1.4,4.4,2,7.5,1.6c2.1-0.2,3.8-0.8,5.3-1.7c1.5-0.9,2.5-2,3.2-3.5c0.7-1.4,0.9-3.1,0.7-4.9l-1.7-15.8
						l-5.2,0.5l1.6,14.9c0.2,1.9,0,3.3-0.7,4.3s-1.9,1.5-3.5,1.7c-1.7,0.2-3-0.1-3.9-0.9s-1.4-2.1-1.6-4L346.1,18l-5.1,0.5l1.6,15.7
						C342.9,37,344,39.1,345.9,40.5L345.9,40.5z"/>
					<path d="M375.8,32.3c0.1-2.2,0.6-3.8,1.3-4.7s1.8-1.3,3.2-1.2c1,0.1,1.8,0.5,2.2,1.2c0.4,0.7,0.6,1.7,0.5,3.1l-0.7,10.9
						l5.1,0.3l0.8-12.2c0.1-2.2-0.3-4-1.4-5.2s-2.7-1.9-4.8-2.1c-1.3-0.1-2.4,0.1-3.4,0.5c-1,0.4-1.9,1-2.5,1.9l-0.3,0l-0.5-2.4
						l-3.9-0.2l-1.2,18.7l5.1,0.3L375.8,32.3L375.8,32.3z"/>
					<path d="M399.6,22.7c0.9,0.2,1.6,0.1,2.2-0.3c0.5-0.4,0.9-0.9,1-1.7c0.3-1.6-0.5-2.6-2.3-3c-1.8-0.3-2.9,0.3-3.2,2
						C397,21.4,397.8,22.3,399.6,22.7L399.6,22.7z"/>
					<rect x="388.1" y="31.6" transform="matrix(0.179 -0.9839 0.9839 0.179 292.7091 419.1491)" width="18.7" height="5.1"/>
					<path d="M413.6,47.8l12.1-16l-5.1-1.5l-6.5,9.2c-0.9,1.3-1.4,2.5-1.8,3.5l-0.1,0c0.2-1.2,0.4-2.5,0.4-3.9l-0.5-11.3l-5.1-1.5
						l1.6,20L413.6,47.8L413.6,47.8z"/>
					<path d="M425.9,49.8c0.9,2.2,2.7,3.9,5.4,5.2c1.3,0.6,2.5,1,3.5,1.2c1,0.2,2,0.3,3,0.3l1.6-3.6c-1.2,0-2.3-0.1-3.3-0.3
						c-1-0.2-2-0.5-3.1-1c-1.3-0.6-2.2-1.4-2.6-2.5c-0.4-1.1-0.3-2.3,0.2-3.6l11,5l1-2.3c1.1-2.4,1.3-4.6,0.5-6.6s-2.3-3.5-4.7-4.6
						c-2.5-1.1-4.9-1.2-7-0.3c-2.1,0.9-3.9,2.8-5.1,5.7C425.3,45,425.1,47.5,425.9,49.8L425.9,49.8z M434.4,40.1
						c0.8-0.4,1.8-0.3,2.8,0.1s1.6,1.1,1.9,2c0.3,0.9,0.2,1.9-0.3,3.1l-6.5-2.9C432.9,41.3,433.6,40.5,434.4,40.1L434.4,40.1z"/>
					<path d="M447.1,62.9l5-8.2c0.8-1.3,1.8-2,3-2.3c1.2-0.2,2.5,0.1,3.9,0.9c0.5,0.3,0.9,0.6,1.2,0.9l2.8-3.9
						c-0.3-0.3-0.8-0.7-1.4-1c-1-0.6-2.1-0.9-3.3-0.8s-2.3,0.3-3.3,1l-0.2-0.1l1-3.1l-3.3-2l-9.7,16L447.1,62.9L447.1,62.9z"/>
					<path d="M463.1,61.9c0.2,0.8,0.7,1.9,1.5,3.3c0.5,0.9,0.9,1.7,1.2,2.4c0.3,0.6,0.4,1.1,0.5,1.5c0,0.3-0.1,0.7-0.3,1
						c-0.7,0.8-1.7,0.7-3.2-0.4c-0.7-0.6-1.5-1.3-2.2-2.3c-0.8-1-1.4-1.9-1.9-2.9l-2.6,3.3c0.4,0.8,1,1.6,1.6,2.3
						c0.6,0.7,1.5,1.5,2.6,2.4c2.1,1.6,4,2.5,5.7,2.5c1.7,0,3.1-0.7,4.3-2.2c0.6-0.7,0.9-1.5,1.1-2.2c0.1-0.7,0.1-1.5-0.1-2.3
						c-0.2-0.8-0.7-1.9-1.5-3.3c-0.9-1.5-1.4-2.6-1.6-3.1s-0.1-1,0.2-1.4c0.5-0.6,1.4-0.5,2.5,0.4c0.7,0.5,1.2,1.1,1.7,1.8
						c0.5,0.7,1,1.5,1.5,2.4l3.5-2c-1.1-2.1-2.5-3.8-4.3-5.2c-1.9-1.5-3.6-2.2-5.2-2.3c-1.6-0.1-2.9,0.5-3.9,1.9
						c-0.6,0.8-1,1.5-1.1,2.2C462.8,60.3,462.9,61.1,463.1,61.9L463.1,61.9z"/>
					<path d="M488.5,67.6c0.6,0,1.2-0.3,1.8-0.9c1.1-1.2,1-2.4-0.3-3.7c-1.4-1.3-2.6-1.3-3.7-0.1c-1.2,1.2-1.1,2.5,0.3,3.7
						C487.2,67.3,487.9,67.6,488.5,67.6L488.5,67.6z"/>
					<rect x="469.1" y="72.6" transform="matrix(0.6872 -0.7265 0.7265 0.6872 95.0663 371.1261)" width="18.7" height="5.1"/>
					<path d="M488,76.6l1.6,1.8l-6.8,6c-1.5,1.4-2.4,2.8-2.5,4.1c-0.2,1.4,0.4,2.8,1.8,4.4c1.2,1.4,2.5,2.4,3.8,2.9l2.9-2.5
						c-1.1-0.7-2-1.3-2.6-2c-0.4-0.5-0.7-1-0.7-1.6c0-0.5,0.2-1,0.8-1.5l6.8-6l3.5,3.9l2.9-2.5l-3.5-3.9l3-2.7l-2.2-2.4l-3.9,1.5
						l-3.2-1L488,76.6L488,76.6z"/>
					<path d="M490.2,103.9c-1.1,0.3-2.1,0.4-3,0.1c-0.8-0.2-1.5-0.7-2-1.5c-0.4-0.6-0.7-1.2-1-1.8l-3.3,2.3c0.3,0.8,0.7,1.6,1.2,2.3
						c1,1.5,2.3,2.5,3.9,3.1s3.4,0.6,5.4,0.1l21.9-5.5l-3.1-4.5l-10.6,3.2c-1,0.3-2.1,0.7-3.1,1.3l-0.1-0.1c1-0.8,1.7-1.6,2.3-2.4
						l6.7-8.9l-3.2-4.6l-11.1,16.7L490.2,103.9L490.2,103.9z"/>
					<path d="M367.5,64.4c-72.2,0-130.9,58.7-130.9,130.9s58.7,130.9,130.9,130.9s130.9-58.7,130.9-130.9S439.6,64.4,367.5,64.4z
						 M445.1,95.4l-3.4,6c-3-1.6-8.8-2.7-15.9-3.6l5.1-12C435.9,88.7,440.6,91.9,445.1,95.4z M427.4,83.8L422,97.3
						c-5-0.5-10.4-0.9-15.8-1.2l5.5-19.4C417.1,78.7,422.4,81.1,427.4,83.8L427.4,83.8z M391,70.9c5.8,1.1,11.4,2.6,16.8,4.4
						l-5.2,20.6c-5.2-0.3-10.4-0.4-15.1-0.6L391,70.9L391,70.9z M369.5,68.7c5.9,0.1,11.7,0.6,17.4,1.4l-3,25.1
						c-6.5-0.2-11.8-0.2-14.8-0.2L369.5,68.7L369.5,68.7z M365.4,68.7l0.3,26.3c-2.9,0-8.2,0.1-14.8,0.2l-3-25.1
						C353.7,69.3,359.5,68.8,365.4,68.7L365.4,68.7z M343.9,70.9l3.5,24.4c-4.7,0.1-9.9,0.3-15.1,0.6l-5.2-20.6
						C332.5,73.5,338.2,72,343.9,70.9L343.9,70.9z M323.2,76.7l5.5,19.4c-5.4,0.3-10.8,0.7-15.8,1.2l-5.4-13.5
						C312.5,81.1,317.8,78.7,323.2,76.7L323.2,76.7z M303.9,85.8l5.1,12c-7.1,0.9-12.8,2.1-15.9,3.6l-3.4-6
						C294.3,91.9,299,88.7,303.9,85.8z M286.7,97.9l4.1,7v26.5l-16.3-21.9C278.3,105.4,282.3,101.5,286.7,97.9z M271.8,112.4
						l19,24.1v18.8l-29-29.7C264.9,121,268.2,116.6,271.8,112.4L271.8,112.4z M259.8,128.8l31,30.3v14.4l-38.6-30.4
						C254.4,138.2,256.9,133.4,259.8,128.8L259.8,128.8z M250.6,146.5l40.2,30v11.8l-45.3-26.9C246.9,156.3,248.6,151.3,250.6,146.5
						L250.6,146.5z M244.6,165l46.2,25.9V201l-49-21C242.4,174.9,243.3,169.9,244.6,165L244.6,165z M240.9,195.2
						c0-4,0.2-7.9,0.6-11.7l49.4,19.7v9.1l-49.9-14C240.9,197.3,240.9,196.3,240.9,195.2L240.9,195.2z M241,201.7l49.8,12.7v8.4
						l-48.2-7C241.8,211.2,241.3,206.5,241,201.7L241,201.7z M243.1,219.1l47.6,5.7v7.1c0,0.4,0,0.7,0,1.1l-44.4-0.6
						C245.1,228,244,223.6,243.1,219.1z M247.4,235.4l43.5-0.5c0.2,2.7,0.6,5.3,1.3,8l-40,4.8C250.4,243.6,248.8,239.6,247.4,235.4z
						 M253.5,250.3l39.3-5.7c0.8,2.5,1.8,5,3,7.5l-36.2,9.2C257.3,257.8,255.3,254.1,253.5,250.3L253.5,250.3z M261.1,263.8l35.5-10
						c1.2,2.3,2.5,4.5,4.1,6.7l-32.6,13C265.6,270.4,263.3,267.2,261.1,263.8L261.1,263.8z M269.8,275.8l31.9-13.7c1.5,2,3,4,4.8,6
						l-29,16.3C274.9,281.6,272.3,278.7,269.8,275.8L269.8,275.8z M279.5,286.1l28.3-16.8c1.6,1.8,3.3,3.5,5.2,5.3l-25.2,18.9
						C284.9,291.2,282.1,288.7,279.5,286.1L279.5,286.1z M289.7,295.1l24.5-19.3c1.7,1.6,3.5,3.2,5.4,4.7l-21.2,20.7
						C295.4,299.3,292.5,297.2,289.7,295.1L289.7,295.1z M300.4,302.6l20.5-21c1.8,1.4,3.7,2.9,5.6,4.3l-17.2,21.8
						C306.3,306.1,303.3,304.4,300.4,302.6L300.4,302.6z M311.5,308.8l16.4-21.9c0.4,0.3,0.8,0.6,1.1,0.8c1.6,1.1,3.1,2.1,4.6,3.1
						l-13.1,22C317.5,311.6,314.4,310.2,311.5,308.8L311.5,308.8z M322.7,313.7l12.3-22c2,1.3,4.1,2.5,6,3.7l-9.2,21.4
						C328.8,315.8,325.7,314.8,322.7,313.7z M334.1,317.4l8.4-21.1c2.2,1.3,4.3,2.5,6.4,3.6l-5.5,19.7
						C340.2,318.9,337.1,318.2,334.1,317.4L334.1,317.4z M345.5,319.9l4.9-19.3c2.5,1.3,4.8,2.5,6.9,3.5l-2.5,17.1
						C351.7,320.9,348.6,320.5,345.5,319.9L345.5,319.9z M366.4,321.8c-3.1,0-6.2-0.2-9.3-0.4l2-16.5c3.9,1.8,6.6,3,7.5,3.4
						L366.4,321.8L366.4,321.8z M293.7,231.9l-0.1-127.5c2-2.7,28.8-6.4,73.8-6.4s71.8,3.7,73.7,6.1v127.8c0,41.8-67,70.8-73.7,73.6
						C360.7,302.7,293.7,273.7,293.7,231.9L293.7,231.9z M368.6,321.8l-0.2-13.6c0.9-0.4,3.6-1.5,7.5-3.4l2,16.5
						C374.8,321.6,371.7,321.8,368.6,321.8L368.6,321.8z M380.1,321.2l-2.5-17.1c2.1-1,4.4-2.2,6.9-3.5l4.9,19.3
						C386.3,320.5,383.2,320.9,380.1,321.2L380.1,321.2z M391.5,319.5l-5.5-19.7c2-1.1,4.2-2.3,6.4-3.6l8.4,21.1
						C397.8,318.2,394.7,318.9,391.5,319.5L391.5,319.5z M403,316.7l-9.2-21.4c2-1.2,4-2.4,6-3.7l12.3,22
						C409.2,314.8,406.1,315.8,403,316.7z M414.3,312.8l-13.1-22c1.5-1,3.1-2,4.6-3.1c0.4-0.3,0.8-0.6,1.1-0.8l16.4,21.9
						C420.5,310.2,417.4,311.6,414.3,312.8L414.3,312.8z M425.6,307.7l-17.2-21.8c1.9-1.4,3.8-2.8,5.6-4.3l20.5,21
						C431.6,304.4,428.6,306.1,425.6,307.7L425.6,307.7z M436.5,301.2l-21.2-20.7c1.9-1.6,3.7-3.1,5.4-4.7l24.5,19.3
						C442.4,297.2,439.5,299.3,436.5,301.2L436.5,301.2z M447.2,293.5L422,274.6c1.9-1.8,3.6-3.5,5.2-5.3l28.3,16.8
						C452.8,288.7,450,291.2,447.2,293.5L447.2,293.5z M457.3,284.3l-29-16.3c1.7-2,3.3-4,4.8-6l32,13.7
						C462.6,278.7,460,281.5,457.3,284.3L457.3,284.3z M466.8,273.6l-32.6-13c1.5-2.2,2.9-4.5,4.1-6.7l35.5,10
						C471.6,267.2,469.3,270.4,466.8,273.6L466.8,273.6z M475.4,261.4l-36.2-9.2c1.2-2.5,2.2-5,3-7.5l39.3,5.7
						C479.6,254.1,477.6,257.8,475.4,261.4L475.4,261.4z M482.7,247.6l-40-4.8c0.7-2.7,1.1-5.3,1.3-8l43.5,0.5
						C486.1,239.5,484.5,243.6,482.7,247.6z M488.5,232.4l-44.4,0.6c0-0.4,0-0.7,0-1.1v-7.1l47.7-5.7
						C490.9,223.6,489.8,228,488.5,232.4L488.5,232.4z M492.3,215.9l-48.2,7v-8.4l49.8-12.7C493.6,206.5,493.1,211.2,492.3,215.9
						L492.3,215.9z M494,195.2c0,1,0,2-0.1,3l-49.9,14v-9.1l49.4-19.7C493.8,187.4,494,191.3,494,195.2L494,195.2z M493.1,180
						l-49,21v-10.1l46.2-25.9C491.6,169.9,492.5,174.9,493.1,180L493.1,180z M489.4,161.4l-45.3,26.9v-11.8l40.2-30
						C486.3,151.4,488,156.3,489.4,161.4z M482.8,143.1l-38.6,30.4v-14.4l31-30.3C478,133.4,480.5,138.2,482.8,143.1L482.8,143.1z
						 M473.1,125.6l-29,29.7v-18.8l19-24.1C466.7,116.6,470,121,473.1,125.6z M444.1,131.3v-26.5l4.1-7c4.3,3.6,8.4,7.5,12.2,11.6
						L444.1,131.3L444.1,131.3z"/>
					<g>
						<path d="M517.8,198.7l0.7-0.7c1.1-1,1.8-1.8,2.3-2.3c0.5-0.6,0.8-1.1,1-1.7c0.2-0.6,0.3-1.2,0.3-1.8c0-0.8-0.2-1.5-0.6-2.1
							c-0.4-0.6-0.9-1.1-1.6-1.4c-0.7-0.3-1.5-0.5-2.3-0.5c-0.6,0-1.2,0.1-1.7,0.2c-0.5,0.1-1,0.3-1.5,0.6c-0.4,0.2-1,0.6-1.6,1.2
							l-0.4,0.4l0.4,0.4l1.4,1.7l0.4,0.4l0.4-0.4c0.5-0.4,0.9-0.7,1.3-0.9c0.4-0.2,0.8-0.3,1.2-0.3c0.3,0,0.6,0.1,0.7,0.2
							c0.1,0.1,0.2,0.2,0.2,0.7c0,0.3,0,0.5-0.1,0.8c-0.1,0.3-0.3,0.6-0.5,0.9c-0.3,0.4-0.9,1-1.8,1.9l-3.1,3.2l-0.2,0.2v2.6h9.9
							v-3.3L517.8,198.7L517.8,198.7z M521.4,193.8c0.2-0.5,0.3-1,0.3-1.6l0,0C521.7,192.8,521.6,193.3,521.4,193.8z M517.5,191
							c-0.5,0-1,0.1-1.4,0.3c-0.5,0.2-0.9,0.5-1.4,0.9l-1.4-1.7l0,0l1.4,1.7c0.5-0.4,1-0.7,1.4-0.9C516.6,191.2,517,191,517.5,191
							c0.5,0,0.8,0.1,1.1,0.4c0.3,0.2,0.4,0.6,0.4,1.1l0,0c0-0.5-0.1-0.9-0.4-1.1C518.4,191.2,518,191,517.5,191z"/>
						<path d="M527.6,188.3c-1.7,0-2.9,0.6-3.8,1.8c-0.8,1.1-1.2,2.9-1.2,5.2c0,2.2,0.4,3.9,1.2,5.1c0.8,1.2,2.1,1.9,3.7,1.9
							s2.9-0.6,3.8-1.8c0.8-1.1,1.2-2.8,1.2-5.2s-0.4-3.9-1.2-5.1C530.5,188.9,529.2,188.2,527.6,188.3L527.6,188.3z M528.4,198.3
							c-0.2,0.6-0.5,0.7-0.8,0.7s-0.6-0.1-0.8-0.6c-0.2-0.6-0.4-1.6-0.4-3.1s0.1-2.5,0.4-3.1c0.2-0.6,0.5-0.7,0.8-0.7
							c0.3,0,0.6,0.1,0.8,0.7c0.2,0.6,0.4,1.6,0.4,3.1S528.6,197.7,528.4,198.3L528.4,198.3z M525.8,195.3c0-1.5,0.1-2.6,0.4-3.3
							C526,192.6,525.8,193.7,525.8,195.3L525.8,195.3z M529.3,195.3c0-1.5-0.1-2.6-0.4-3.3C529.2,192.6,529.3,193.7,529.3,195.3
							L529.3,195.3z M523.2,195.3L523.2,195.3c0,1.1,0.1,2,0.3,2.8C523.3,197.3,523.2,196.3,523.2,195.3z M530.9,200.1
							c-0.4,0.5-0.8,0.9-1.4,1.2s-1.2,0.4-1.9,0.4c-1.4,0-2.5-0.5-3.3-1.6c0.7,1.1,1.8,1.6,3.3,1.6c0.7,0,1.4-0.1,1.9-0.4
							S530.5,200.6,530.9,200.1c0.7-1.1,1.1-2.7,1.1-4.9l0,0C532,197.4,531.6,199.1,530.9,200.1L530.9,200.1z"/>
						<path d="M537.8,198.7l0.7-0.7c1.1-1,1.8-1.8,2.3-2.3c0.5-0.6,0.8-1.1,1-1.7c0.2-0.6,0.3-1.2,0.3-1.8c0-0.8-0.2-1.5-0.6-2.1
							c-0.4-0.6-0.9-1.1-1.6-1.4c-0.7-0.3-1.5-0.5-2.3-0.5c-0.6,0-1.2,0.1-1.7,0.2c-0.5,0.1-1,0.3-1.5,0.6c-0.4,0.2-1,0.6-1.6,1.2
							l-0.4,0.4l0.4,0.4l1.4,1.7l0.4,0.4l0.4-0.4c0.5-0.4,0.9-0.7,1.3-0.9c0.4-0.2,0.8-0.3,1.2-0.3c0.3,0,0.6,0.1,0.7,0.2
							c0.1,0.1,0.2,0.2,0.2,0.7c0,0.3,0,0.5-0.1,0.8c-0.1,0.3-0.3,0.6-0.5,0.9c-0.3,0.4-0.9,1-1.8,1.9l-3.1,3.2l-0.2,0.2v2.6h9.9
							v-3.3L537.8,198.7L537.8,198.7z M541.4,193.8c0.2-0.5,0.3-1,0.3-1.6l0,0C541.7,192.8,541.6,193.3,541.4,193.8z M537.5,191
							c-0.5,0-1,0.1-1.4,0.3c-0.5,0.2-0.9,0.5-1.4,0.9l-1.4-1.7l0,0l1.4,1.7c0.5-0.4,1-0.7,1.4-0.9C536.6,191.2,537,191,537.5,191
							c0.5,0,0.8,0.1,1.1,0.4c0.3,0.2,0.4,0.6,0.4,1.1l0,0c0-0.5-0.1-0.9-0.4-1.1C538.4,191.2,538,191,537.5,191z"/>
						<path d="M549.8,188.5h-2.4l-0.2,0.1l-4,3.2l-0.4,0.4l0.3,0.4l1.3,1.6l0.3,0.4l0.4-0.4l1.4-1.1l0,1.2v7.2v0.6h3.8v-13.6
							L549.8,188.5L549.8,188.5z M546.3,192.7l-1.4,1.1l-1.3-1.6l0,0l1.3,1.6L546.3,192.7c0.2-0.1,0.5-0.4,0.9-0.9l0,0
							C546.8,192.2,546.5,192.5,546.3,192.7z"/>
						<path d="M186.5,188.4H186v13.6h8.3v-3.3h-4.6v-2.1h4.2v-3.3h-4.2v-1.6h4.6v-3.3L186.5,188.4L186.5,188.4z M193.7,191.2h-4.6
							H193.7L193.7,191.2z"/>
						<path d="M204.8,188.4h-0.6v0.9l-0.3-0.1c-0.7-0.3-1.3-0.5-1.9-0.7c-0.6-0.2-1.3-0.2-2-0.2c-1.4,0-2.6,0.4-3.5,1.1
							c-0.9,0.7-1.3,1.8-1.3,3c0,0.7,0.1,1.3,0.4,1.8c0.3,0.5,0.6,0.9,1.1,1.3c0.4,0.4,1,0.7,1.8,1.1c1,0.5,1.4,0.7,1.6,0.8
							c0.2,0.1,0.4,0.3,0.5,0.4c0.1,0.1,0.1,0.2,0.1,0.3c0,0.3-0.1,0.5-0.2,0.5c-0.2,0.1-0.6,0.2-1,0.2c-0.5,0-0.9-0.1-1.5-0.2
							c-0.6-0.1-1.2-0.4-2.1-0.8l-0.8-0.4v3.7l0.3,0.1c1.1,0.5,2.4,0.8,3.8,0.8c1.6,0,2.8-0.4,3.7-1.1c0.9-0.8,1.4-1.8,1.4-3.1
							c0-0.9-0.3-1.8-0.8-2.4c-0.5-0.6-1.4-1.2-2.6-1.8c-1.1-0.5-1.5-0.8-1.6-0.8c-0.2-0.1-0.3-0.3-0.4-0.3
							c-0.1-0.1-0.1-0.2-0.1-0.3c0-0.2,0.1-0.4,0.2-0.5c0.2-0.1,0.4-0.2,0.8-0.2s0.8,0.1,1.2,0.1c0.4,0.1,0.9,0.3,1.6,0.6l0.5,0.2
							l0.2-0.5l0.9-2.1l0-0.1v1.9h3.4v10.3h3.8v-10.3h3.4v-3.3L204.8,188.4L204.8,188.4z M197,195.1c-0.4-0.3-0.7-0.7-0.9-1.2
							C196.3,194.4,196.6,194.7,197,195.1c0.4,0.3,1,0.7,1.7,1C197.9,195.8,197.4,195.4,197,195.1z M200.3,197
							c0.3,0.2,0.5,0.4,0.6,0.6c0.1,0.2,0.2,0.4,0.2,0.7l0,0c0-0.2-0.1-0.5-0.2-0.7C200.8,197.3,200.6,197.1,200.3,197z
							 M199.1,201.7c-1.3,0-2.5-0.2-3.6-0.8l0,0C196.6,201.4,197.8,201.7,199.1,201.7c0.7,0,1.4-0.1,1.9-0.2
							C200.5,201.6,199.9,201.7,199.1,201.7z M202.5,200.7c0.8-0.6,1.2-1.5,1.2-2.7C203.7,199.2,203.3,200.1,202.5,200.7z
							 M199.9,191c-0.5,0-0.9,0.1-1.2,0.4C199,191.2,199.4,191,199.9,191c0.4,0,0.9,0.1,1.3,0.2C200.7,191.1,200.3,191,199.9,191z"
							/>
						<path d="M218.7,188.4h-3.1v9.1h2.8c1.6,0,2.8-0.4,3.6-1.2c0.9-0.8,1.3-2,1.3-3.4c0-1.4-0.4-2.5-1.3-3.3
							C221.3,188.8,220.1,188.4,218.7,188.4L218.7,188.4z M218.6,195.1h-0.2v-4.1h0.3c0.9,0,1.7,0.2,1.7,2
							C220.5,194.4,219.9,195.1,218.6,195.1L218.6,195.1z M221.1,193c0-0.9-0.2-1.5-0.6-1.9C220.9,191.5,221.1,192.1,221.1,193
							L221.1,193z M221.7,196c0.8-0.7,1.1-1.7,1.1-3l0,0C222.8,194.2,222.4,195.3,221.7,196z"/>
						<polygon points="216.2,199.3 215.6,199.3 215.6,199.8 215.6,201.5 215.6,202.1 216.2,202.1 222.8,202.1 223.4,202.1 
							223.4,201.5 223.4,199.8 223.4,199.3 222.8,199.3 						"/>
					</g>
					<g>
						<path d="M381.9,346.7c-0.5,0-1,0-1.5,0.1l-5.2,0.5c-0.5,0-0.9,0.5-0.8,1l1.7,19.2c0,0.2,0.1,0.5,0.3,0.6
							c0.2,0.1,0.4,0.2,0.6,0.2c0,0,0.1,0,0.1,0l3-0.3c0.5,0,0.9-0.5,0.8-1l-0.6-6.3l0.8-0.1c2.7-0.2,4.7-1,6.1-2.4
							c1.5-1.4,2.1-3.3,1.9-5.6C389,350,387.5,346.7,381.9,346.7L381.9,346.7z M386.5,349c-0.1-0.1-0.1-0.1-0.2-0.2
							C386.4,348.9,386.5,349,386.5,349z M380.4,350.4L380.4,350.4L380.4,350.4l-2,0.2L380.4,350.4z M381.5,351.2
							c0.9,0,1.6,0.1,2.1,0.4c0.3,0.2,0.7,0.6,0.8,1.6c0.1,1.2-0.3,1.7-0.6,1.9c-0.4,0.3-1.3,0.8-3.3,1l-0.6,0l-0.4-4.8l1.1-0.1
							C380.8,351.2,381.2,351.2,381.5,351.2L381.5,351.2z M382.1,350.4c0.2,0,0.4,0,0.5,0C382.5,350.4,382.3,350.4,382.1,350.4z
							 M384.3,347.9c0.1,0,0.2,0.1,0.3,0.1C384.5,348,384.4,347.9,384.3,347.9z M382,347.6c-0.5,0-1,0-1.5,0.1
							C381,347.6,381.4,347.6,382,347.6C381.9,347.6,381.9,347.6,382,347.6z M377,367.4l3-0.3l0,0L377,367.4z M387.7,350.5
							c0,0.1,0.1,0.2,0.1,0.2C387.7,350.6,387.7,350.5,387.7,350.5z"/>
						<path d="M336.7,344.1l-2.3-0.5c-0.1,0-0.1,0-0.2,0c-0.3,0-0.6,0.1-0.8,0.4l-11.5,17.4c-0.2,0.2-0.2,0.6-0.1,0.9
							c0.1,0.3,0.4,0.5,0.7,0.6l3,0.6c0.1,0,0.1,0,0.2,0c0.3,0,0.6-0.1,0.8-0.4l3.1-4.7l5.5,1.2l0.9,5.6c0.1,0.4,0.4,0.7,0.7,0.8
							l3,0.6c0.1,0,0.1,0,0.2,0c0.2,0,0.5-0.1,0.6-0.2c0.2-0.2,0.3-0.5,0.3-0.8l-3.4-20.6C337.4,344.5,337.1,344.2,336.7,344.1
							L336.7,344.1z M332.2,354.2l1.6-2.5l0.4,3L332.2,354.2z M336.8,364.9l-1-6.2L336.8,364.9l3,0.6L336.8,364.9z"/>
						<path d="M261.8,304.7c-0.2-0.2-0.4-0.3-0.7-0.3c-0.2,0-0.5,0.1-0.6,0.3l-7.9,7.7c-0.1,0-0.1,0.1-0.2,0.2l3.1-13.7
							c0.1-0.3,0-0.6-0.2-0.9l-2.1-2.2c-0.2-0.2-0.4-0.3-0.7-0.3s-0.5,0.1-0.6,0.3L238,309.2c-0.2,0.2-0.3,0.4-0.3,0.6
							s0.1,0.5,0.3,0.7l2,2c0.2,0.2,0.4,0.3,0.7,0.3s0.5-0.1,0.6-0.3l7.8-7.6c0.1-0.1,0.2-0.2,0.3-0.2l-3.1,13.7
							c-0.1,0.3,0,0.6,0.2,0.9l2.2,2.2c0.2,0.2,0.4,0.3,0.6,0.3c0,0,0,0,0,0c0.2,0,0.5-0.1,0.6-0.3l13.9-13.5
							c0.2-0.2,0.3-0.4,0.3-0.6c0-0.2-0.1-0.5-0.3-0.7L261.8,304.7L261.8,304.7z M248.4,304.3l-7.8,7.6l-2-2l2,2L248.4,304.3
							c0.8-0.8,1.6-1.6,2.5-2.6l0,0C250.1,302.7,249.2,303.6,248.4,304.3L248.4,304.3z M247.1,318.7L247.1,318.7l2.1,2.2
							L247.1,318.7z"/>
						<path d="M248.6,290.1l-1.8-2.4c-0.2-0.2-0.4-0.3-0.6-0.4c0,0-0.1,0-0.1,0c-0.2,0-0.4,0.1-0.6,0.2l-15.2,11.9
							c-0.4,0.3-0.5,0.9-0.2,1.3l1.8,2.4c0.2,0.2,0.4,0.3,0.6,0.4c0,0,0.1,0,0.1,0c0.2,0,0.4-0.1,0.6-0.2l15.2-11.9
							C248.9,291.1,248.9,290.5,248.6,290.1z M232.7,302.6l15.2-11.9l0,0C247.9,290.7,232.7,302.6,232.7,302.6z"/>
						<path d="M363.9,355.6c-1.1-0.4-1.8-0.8-2.3-1.1c-0.4-0.3-0.6-0.5-0.7-0.7c-0.1-0.1-0.2-0.4-0.2-0.9c0-0.6,0.2-0.8,0.5-1
							c0.4-0.3,1-0.4,1.7-0.4h0.2c1.3,0,2.6,0.4,3.9,1l0.4,0.2c0.1,0,0.2,0.1,0.4,0.1c0.1,0,0.2,0,0.3-0.1c0.2-0.1,0.4-0.3,0.5-0.5
							l1-2.6c0.2-0.5,0-1-0.5-1.2l-0.3-0.2c-1.7-0.8-3.6-1.2-5.6-1.3h-0.4c-1.9,0-3.4,0.5-4.7,1.4c-1.4,1.1-2.2,2.6-2.2,4.4
							c-0.1,1.7,0.4,3.1,1.3,4.2c0.9,1,2.3,1.9,4.2,2.7c1.1,0.4,2,0.8,2.5,1.1c0.5,0.3,0.7,0.6,0.8,0.7c0.1,0.2,0.2,0.5,0.2,0.9
							c0,0.6-0.2,0.9-0.6,1.2c-0.3,0.2-0.9,0.5-2.1,0.5h-0.3c-0.8,0-1.6-0.1-2.4-0.3c-0.8-0.2-1.5-0.4-2.2-0.7l-0.6-0.3
							c-0.1,0-0.2-0.1-0.4-0.1c-0.2,0-0.3,0-0.5,0.1c-0.3,0.2-0.4,0.5-0.4,0.8l-0.1,3c0,0.4,0.2,0.7,0.5,0.9l0.2,0.1
							c1.3,0.7,3.2,1.1,5.6,1.1h0.4c2.1,0,3.9-0.5,5.3-1.5c1.6-1.1,2.4-2.8,2.4-4.8c0.1-1.6-0.4-3-1.3-4
							C367.5,357.4,366,356.5,363.9,355.6L363.9,355.6z M361.7,350.8c0.1,0,0.3,0,0.4,0C362,350.8,361.8,350.8,361.7,350.8z
							 M363.2,347.9c-0.7,0-1.2,0.1-1.8,0.2c0.5-0.1,0.9-0.2,1.4-0.2C363,347.9,363.1,347.9,363.2,347.9L363.2,347.9z M360.6,348.2
							c-0.7,0.2-1.4,0.5-1.9,0.9C359.2,348.7,359.9,348.4,360.6,348.2z M361.7,358.8c-1.8-0.7-3-1.5-3.8-2.4
							C358.7,357.3,360,358.1,361.7,358.8c1.2,0.5,2.1,0.9,2.7,1.2C363.8,359.7,362.9,359.3,361.7,358.8z M363.6,364.9
							c-0.2,0-0.4,0-0.5,0.1C363.2,364.9,363.4,364.9,363.6,364.9z M366.7,366.4c-0.6,0.4-1.3,0.8-2.1,1c-0.8,0.2-1.7,0.3-2.6,0.3
							c-0.1,0-0.2,0-0.4,0c0.1,0,0.2,0,0.4,0c1,0,1.8-0.1,2.6-0.3S366.1,366.9,366.7,366.4c0.3-0.2,0.6-0.5,0.9-0.8
							C367.3,365.9,367,366.2,366.7,366.4z M368.6,363.6c0.1-0.4,0.1-0.8,0.2-1.2l0,0C368.8,362.8,368.7,363.2,368.6,363.6z"/>
						<path d="M463.4,315.3l-0.2-0.3c-0.2-0.3-0.5-0.4-0.8-0.4c-0.2,0-0.4,0-0.5,0.2l-3.2,2.2c-0.3,0.2-0.5,0.6-0.4,1l3.1,13
							l-10.8-7.4l-0.2-0.2c-0.2-0.1-0.3-0.2-0.5-0.2s-0.4,0-0.5,0.2l-3.2,2.2c-0.2,0.1-0.3,0.4-0.4,0.6c0,0.2,0,0.5,0.2,0.7
							l10.8,15.6l0.2,0.3c0.2,0.3,0.5,0.4,0.8,0.4c0.2,0,0.4,0,0.5-0.2l2.3-1.6c0.2-0.1,0.3-0.4,0.4-0.6c0-0.2,0-0.5-0.1-0.7
							l-5.3-7.7l8.3,5.7l0.2,0.2c0.2,0.1,0.3,0.2,0.5,0.2s0.4,0,0.5-0.2l1.9-1.3c0.3-0.2,0.5-0.6,0.4-1l-2.4-10.2l5.3,7.8
							c0.2,0.3,0.5,0.4,0.8,0.4c0.2,0,0.4,0,0.5-0.2l2.5-1.7c0.4-0.3,0.5-0.9,0.2-1.3L463.4,315.3L463.4,315.3z M464.5,337.6
							l1.9-1.3l0,0L464.5,337.6z"/>
						<path d="M286.5,327.4c-0.5-2.6-2.1-4.8-4.8-6.6l-5-3.4c-0.2-0.1-0.3-0.2-0.5-0.2c-0.1,0-0.1,0-0.2,0c-0.2,0-0.5,0.2-0.6,0.4
							l-10.8,16c-0.1,0.2-0.2,0.5-0.1,0.7c0.1,0.2,0.2,0.5,0.4,0.6l4.6,3.1c2.3,1.5,4.5,2.3,6.7,2.3c0.5,0,1.1,0,1.6-0.1
							c2.6-0.5,4.9-2.2,6.8-5C286.4,332.7,287,330,286.5,327.4L286.5,327.4z M279.4,323.7c0.9,0.6,1.7,1.3,2.2,2
							C281.1,325,280.3,324.3,279.4,323.7l-2.2-1.5l-7.8,11.6l0,0l7.8-11.6L279.4,323.7z M276.6,335.6c-0.2,0-0.5,0.1-0.8,0.1
							c-1.2,0-2.6-0.5-4.1-1.5l-1.1-0.7l6.7-10l1.5,1c1.7,1.1,2.6,2.4,2.9,3.7c0.2,1.3-0.2,2.9-1.3,4.5
							C279.3,334.4,278,335.4,276.6,335.6L276.6,335.6z M275.6,336.6c-0.1,0-0.3,0-0.4,0C275.3,336.6,275.5,336.6,275.6,336.6z
							 M274.4,336.4c-0.2,0-0.3-0.1-0.5-0.1C274.1,336.3,274.2,336.4,274.4,336.4z M273,335.9c-0.1-0.1-0.3-0.1-0.4-0.2
							C272.7,335.8,272.9,335.9,273,335.9z M265.4,334.3L265.4,334.3l4.6,3.1L265.4,334.3z M277.6,339.4c-0.5,0.1-0.9,0.1-1.4,0.1
							C276.7,339.6,277.1,339.5,277.6,339.4c0.6-0.1,1.2-0.3,1.7-0.5C278.8,339.1,278.2,339.3,277.6,339.4z M285.8,329.4
							c-0.1,1.8-0.7,3.6-1.9,5.4C285.1,333,285.7,331.2,285.8,329.4z"/>
						<path d="M502.4,293.9c-1.1-0.9-2.4-1.4-3.7-1.4c-0.1,0-0.2,0-0.3,0c-1.3,0.1-2.9,0.7-4.9,1.9c-1.2,0.7-1.9,1.1-2.2,1.2
							c-0.3,0.1-0.6,0.2-0.8,0.2c-0.4,0-0.7-0.2-1-0.4c-0.3-0.3-0.5-0.6-0.5-1c0-0.5,0.3-1.1,0.8-1.7c0.8-1,1.8-1.8,3.1-2.5l0.4-0.2
							c0.2-0.1,0.4-0.3,0.5-0.6c0.1-0.2,0-0.5-0.1-0.7l-1.5-2.4c-0.2-0.3-0.5-0.4-0.8-0.4c-0.1,0-0.3,0-0.4,0.1l-0.3,0.2
							c-1.6,0.9-3.1,2.1-4.4,3.7c-1.3,1.6-2,3.3-2,4.9c0,1.8,0.7,3.3,2.2,4.4c1.2,1,2.5,1.5,3.9,1.5h0.3c1.3-0.1,2.9-0.6,4.7-1.7
							c1.3-0.8,2-1.1,2.4-1.3c0.5-0.2,0.8-0.2,1-0.2c0.3,0,0.6,0.2,0.9,0.4c0.4,0.3,0.6,0.7,0.6,1.2c0,0.4-0.2,1.1-1.1,2.2
							c-0.5,0.6-1,1.2-1.7,1.7c-0.6,0.5-1.3,1-1.9,1.3l-0.5,0.3c-0.3,0.1-0.5,0.4-0.5,0.7c0,0.3,0.1,0.6,0.3,0.8l2.3,1.9
							c0.2,0.1,0.4,0.2,0.6,0.2c0.1,0,0.3,0,0.4-0.1l0.2-0.1c1.4-0.6,2.8-1.9,4.3-3.8c1.5-1.8,2.2-3.6,2.2-5.4
							C504.7,296.9,503.9,295.2,502.4,293.9L502.4,293.9z M498.7,293.5c0.3,0,0.6,0.1,1,0.2c-0.4-0.1-0.8-0.2-1.2-0.2
							C498.5,293.5,498.6,293.5,498.7,293.5L498.7,293.5z M501.8,294.7c-0.5-0.4-1-0.7-1.6-0.9C500.7,294,501.3,294.2,501.8,294.7z
							 M491.6,296.6c-0.4,0.1-0.7,0.2-1,0.2C490.9,296.8,491.2,296.7,491.6,296.6z M489,292.2c-0.3,0.4-0.6,0.8-0.7,1.2
							s-0.3,0.8-0.3,1.1l0,0c0-0.4,0.1-0.7,0.3-1.1C488.5,293,488.7,292.6,489,292.2c0.4-0.5,0.9-1,1.5-1.5
							C490,291.1,489.5,291.6,489,292.2z M488.7,299.5c-0.6-0.2-1.1-0.5-1.7-1C487.5,298.9,488.1,299.2,488.7,299.5z M494.7,298.2
							c-1.6,1-3,1.5-4.2,1.6c-0.1,0-0.1,0-0.2,0c-0.4,0-0.7-0.1-1.1-0.2c0.4,0.1,0.8,0.2,1.3,0.2
							C491.7,299.7,493.1,299.2,494.7,298.2c1.1-0.7,2-1.1,2.6-1.4C496.7,297,495.8,297.5,494.7,298.2L494.7,298.2z M497.8,307.1
							c0.9-0.4,1.9-1.2,2.9-2.3C499.7,305.9,498.7,306.7,497.8,307.1z M503.7,299.9c-0.2,0.8-0.5,1.6-1,2.4
							C503.1,301.6,503.5,300.7,503.7,299.9c0.1-0.4,0.1-0.8,0.1-1.2l0,0C503.8,299.1,503.7,299.5,503.7,299.9z"/>
						<path d="M301.9,332.4l-2.1-1c-0.1-0.1-0.3-0.1-0.4-0.1c-0.2,0-0.4,0.1-0.6,0.2l-15.4,14.1c-0.2,0.2-0.3,0.5-0.3,0.8
							c0,0.3,0.2,0.6,0.5,0.7l2.8,1.3c0.1,0.1,0.3,0.1,0.4,0.1c0.2,0,0.5-0.1,0.6-0.2l4.2-3.9l5,2.5l-0.4,5.7c0,0.4,0.2,0.7,0.5,0.9
							l2.8,1.4c0.1,0.1,0.3,0.1,0.4,0.1c0.2,0,0.3,0,0.5-0.1c0.3-0.1,0.4-0.4,0.5-0.7l1.7-20.8C302.5,332.9,302.3,332.6,301.9,332.4
							L301.9,332.4z M295.2,341.1l2.2-2.1l-0.3,3C297.1,342,295.2,341.1,295.2,341.1z M297.6,337.5l-4,3.8L297.6,337.5
							c0.3-0.3,0.7-0.7,1-1C298.3,336.9,298,337.2,297.6,337.5z M291.4,343.3l-4.6,4.3L291.4,343.3l6.2,3l0,0
							C297.6,346.3,291.4,343.3,291.4,343.3z M299.9,354l-2.8-1.4L299.9,354l1.7-20.8l0,0L299.9,354z"/>
						<path d="M424.3,349.3c1.6-1.8,2-3.9,1.2-6.3c-0.7-2-1.9-3.4-3.6-4c-0.6-0.2-1.4-0.4-2.2-0.4c-1.1,0-2.5,0.2-3.9,0.7l-5.2,1.8
							c-0.5,0.2-0.7,0.7-0.6,1.2l6.2,18.3c0.1,0.2,0.2,0.4,0.5,0.5c0.1,0.1,0.3,0.1,0.4,0.1c0.1,0,0.2,0,0.3,0l2.8-1
							c0.5-0.2,0.7-0.7,0.6-1.2l-2.2-6.4l1.7-0.6l6.3,5.5c0.2,0.1,0.4,0.2,0.6,0.2c0.1,0,0.2,0,0.3,0l3.3-1.1
							c0.3-0.1,0.5-0.4,0.6-0.7c0.1-0.3-0.1-0.7-0.3-0.9L424.3,349.3L424.3,349.3z M423,349.3c1-0.8,1.6-1.8,1.8-2.8
							C424.6,347.6,423.9,348.5,423,349.3L423,349.3z M418.8,347.8l-1.5,0.5l-1.4-4.2l1.4-0.5c0.8-0.3,1.5-0.4,2.1-0.4
							c0.2,0,0.4,0,0.6,0.1s0.6,0.2,1,1.3c0.3,1,0.2,1.5,0,1.8C420.7,346.8,420.1,347.3,418.8,347.8L418.8,347.8z M418.6,342.4
							c0.1,0,0.2,0,0.4,0C418.8,342.4,418.7,342.4,418.6,342.4z M416.9,342.8L416.9,342.8l-2.3,0.8L416.9,342.8L416.9,342.8z
							 M417.9,339.8c0.2,0,0.3,0,0.5-0.1C418.3,339.7,418.1,339.7,417.9,339.8z M422,345.8c0-0.4-0.1-0.9-0.2-1.4
							C422,344.9,422.1,345.4,422,345.8z M419.9,339.6c-0.2,0-0.3,0-0.4,0c0.1,0,0.2,0,0.2,0S419.9,339.6,419.9,339.6L419.9,339.6z
							 M411,342L411,342l6.2,18.3L411,342z M427.3,356.9l-6.7-5.8l-3,1l0,0l3-1L427.3,356.9l3.3-1.1l0,0L427.3,356.9z"/>
						<path d="M408.7,359.1c-0.1-0.1-0.3-0.1-0.5-0.1c-0.1,0-0.1,0-0.2,0l-7.1,1.5l-0.9-4l6.6-1.4c0.5-0.1,0.8-0.6,0.7-1.1l-0.6-2.7
							c0-0.2-0.2-0.5-0.4-0.6c-0.2-0.1-0.3-0.1-0.5-0.1c-0.1,0-0.1,0-0.2,0l-6.6,1.4l-0.7-3.2l7.1-1.5c0.5-0.1,0.8-0.6,0.7-1.1
							l-0.6-2.7c-0.1-0.2-0.2-0.5-0.4-0.6c-0.1-0.1-0.3-0.1-0.5-0.1c-0.1,0-0.1,0-0.2,0l-10.9,2.3c-0.2,0-0.4,0.2-0.6,0.4
							s-0.2,0.5-0.1,0.7l3.9,18.5l0.1,0.4c0,0.2,0.2,0.5,0.4,0.6c0.1,0.1,0.3,0.1,0.5,0.1c0.1,0,0.1,0,0.2,0l10.9-2.3
							c0.5-0.1,0.8-0.6,0.7-1.1l-0.6-2.7C409,359.5,408.9,359.3,408.7,359.1L408.7,359.1z M398.9,355.7l7.5-1.6l0,0L398.9,355.7z
							 M393.8,346L393.8,346l3.9,18.5L393.8,346z"/>
						<path d="M436.1,331.4c-0.2-0.2-0.4-0.2-0.6-0.2c-0.1,0-0.3,0-0.4,0.1l-2.1,1c-0.3,0.2-0.5,0.5-0.5,0.9l1.6,20.8
							c0,0.3,0.2,0.6,0.5,0.7c0.1,0.1,0.3,0.1,0.5,0.1c0.1,0,0.3,0,0.4-0.1l2.8-1.3c0.3-0.2,0.5-0.5,0.5-0.9l-0.5-5.7l5-2.5l4.2,3.9
							c0.2,0.2,0.4,0.2,0.6,0.2c0.1,0,0.3,0,0.4-0.1l2.8-1.4c0.3-0.1,0.5-0.4,0.5-0.7c0-0.3-0.1-0.6-0.3-0.8L436.1,331.4
							L436.1,331.4z M437.5,339l2.2,2.1l-1.9,0.9L437.5,339z M441.3,341.3l-4-3.8L441.3,341.3L441.3,341.3z M448,347.6l-4.6-4.3
							l-6.2,3l0,0l6.2-3L448,347.6l2.8-1.4l0,0L448,347.6L448,347.6z"/>
						<path d="M479.7,299.6c-0.2-0.2-0.4-0.3-0.7-0.3c0,0,0,0,0,0c-0.2,0-0.5,0.1-0.6,0.3l-2.1,2.1c-0.4,0.4-0.4,0.9,0,1.3l8.6,9
							c0.8,0.8,1.2,1.7,1.2,2.5c0,0.8-0.5,1.6-1.3,2.5c-0.9,0.9-1.8,1.3-2.6,1.3c-0.8,0-1.6-0.4-2.5-1.3l-8.7-9
							c-0.2-0.2-0.4-0.3-0.7-0.3s-0.5,0.1-0.6,0.3l-2.1,2.1c-0.2,0.2-0.3,0.4-0.3,0.6c0,0.2,0.1,0.5,0.3,0.7l8.5,8.9
							c1.7,1.8,3.7,2.7,5.7,2.8c2.2,0,4.1-0.9,5.9-2.6c1.8-1.8,2.8-3.8,2.9-5.8c0.1-2.1-0.7-4.1-2.4-5.9L479.7,299.6L479.7,299.6z
							 M485.5,311.2l-8.6-9L485.5,311.2c0.5,0.5,0.9,1,1.1,1.6s0.4,1.1,0.3,1.6l0,0c0-0.5-0.1-1.1-0.3-1.6
							C486.4,312.3,486,311.8,485.5,311.2z M476.8,319.5l-8.5-8.9L476.8,319.5c0.8,0.8,1.6,1.4,2.4,1.8
							C478.4,320.9,477.6,320.3,476.8,319.5z M488.3,318.3c1-1.3,1.5-2.6,1.5-4l0,0C489.7,315.7,489.2,317,488.3,318.3z"/>
						<path d="M323.5,345.8c0.1,0,0.3,0,0.4-0.1c0.2-0.1,0.4-0.3,0.5-0.5l0.9-2.6c0.1-0.2,0.1-0.5,0-0.7c-0.1-0.2-0.3-0.4-0.5-0.5
							l-13.9-4.8c-0.1,0-0.2,0-0.3,0c-0.4,0-0.7,0.2-0.9,0.6l-0.9,2.6c-0.1,0.2-0.1,0.5,0,0.7s0.3,0.4,0.5,0.5l4.7,1.6l-5.1,14.8
							c-0.2,0.5,0.1,1,0.6,1.2l2.8,1c0.1,0,0.2,0,0.3,0c0.1,0,0.3,0,0.4-0.1c0.2-0.1,0.4-0.3,0.5-0.5l5.1-14.8l4.7,1.6
							C323.3,345.7,323.4,345.8,323.5,345.8L323.5,345.8z M318,342.9l-5.4,15.7L318,342.9l5.5,1.9L318,342.9z"/>
					</g>
					<path d="M436.1,107.6l-0.8-0.2c-9.1-2.2-33.6-4.4-67.9-4.4s-58.8,2.2-67.9,4.4l-0.8,0.2v124.2c0,20.5,18.8,38,34.6,49.1
						c13.9,9.8,28.2,16.4,33.7,18.8l0.4,0.2l0.4-0.2c5.5-2.4,19.8-9.1,33.7-18.8c15.8-11.1,34.6-28.5,34.6-49.1L436.1,107.6
						L436.1,107.6z M432.2,110.8v75.4c-11.7-2.5-36.4-4.1-63.8-4.1v-75.1C401,107,422.9,109,432.2,110.8z M366.5,106.9V182
						c-27.4,0-52,1.6-63.8,4.1v-75.4C312,109,333.9,107,366.5,106.9z M367.5,295.7c-5.5-2.5-18.9-8.9-31.8-17.9
						c-15-10.5-32.9-27-32.9-45.9v-43.8c11.6-2.5,36.8-4.2,64.8-4.2s53.2,1.6,64.8,4.2v43.8c0,18.9-17.9,35.4-32.9,45.9
						C386.4,286.8,373,293.2,367.5,295.7L367.5,295.7z"/>
				</g>
				<path d="M346.5,222.6c-0.4-0.1-0.8-0.4-1-0.8c-0.1-0.3-0.2-0.6-0.2-0.9v-20c0-0.6,0.3-1.1,0.8-1.4c0.2-0.1,0.5-0.2,0.8-0.2
					c0.3,0,0.5,0.1,0.8,0.2c7.2,3.7,14.4,7.5,21.5,11.3c0.9,0.5,0.9,1.2,0.9,1.4c0,0.2-0.1,1-1,1.4c-7.1,2.9-14.3,6-21.4,9.1
					c-0.2,0.1-0.4,0.2-0.7,0.2C346.9,222.7,346.5,222.6,346.5,222.6L346.5,222.6z M347.8,219.9c5.7-2.5,11.8-5.1,18.7-8
					c-6.2-3.3-12.5-6.6-18.7-9.8V219.9z"/>
				<path d="M347.2,229.5c-0.5,0-0.9-0.2-1.3-0.5c-0.4-0.4-0.6-0.8-0.6-1.4v-1.5c0-0.9,0.6-1.7,1.3-2.1c8.3-3.6,16.8-7.2,25.4-10.7
					c0.4-0.1,0.7-0.2,1-0.2c0.4,0,0.8,0.1,1.2,0.3c7,3.8,14.1,7.7,21,11.6c1,0.5,0.9,1.4,0.8,1.6c-0.1,0.5-0.6,1-1.5,1
					c-15.6,0.3-31.5,0.9-47.3,1.9C347.3,229.5,347.2,229.5,347.2,229.5L347.2,229.5z M372.9,215.6c-8.5,3.5-17,7.1-25.2,10.6l0,0.8
					c14.3-0.9,28.8-1.5,43.1-1.8c-5.9-3.3-11.8-6.5-17.6-9.6l-0.2,0V215L372.9,215.6L372.9,215.6z"/>
				<path d="M372.9,244.2c-0.3,0-0.5,0-0.8-0.1c-8.4-2.8-16.9-5.5-25.3-8.1c-0.9-0.3-1.5-1.1-1.5-2v-1.6c0-1,0.8-1.9,1.8-2
					c15.7-1,31.7-1.6,47.4-1.9c0.9,0,1.4,0.5,1.5,1c0.1,0.5,0,1.2-0.8,1.6c-7,4.1-14,8.4-20.9,12.6
					C373.9,244.1,373.4,244.2,372.9,244.2L372.9,244.2z M347.8,234c8.1,2.3,16.6,5,25.1,7.8c6.1-3.6,12-7.2,17.9-10.7
					c-14.3,0.3-28.7,0.9-43,1.8L347.8,234z"/>
				<path d="M346.9,260.8c-0.2,0-0.5-0.1-0.7-0.2c-0.5-0.3-0.8-0.8-0.8-1.5V239c0-0.2,0-0.5,0.2-0.8c0.3-0.6,0.9-0.9,1.5-0.9
					c0.2,0,0.5,0.1,0.7,0.1c6.9,2.1,14.2,4.4,21.3,6.8c0.9,0.3,1.1,1.1,1.1,1.3c0,0.2,0.1,1-0.8,1.5c-7.1,4.4-14.3,9-21.5,13.5
					C347.5,260.7,347.2,260.8,346.9,260.8L346.9,260.8z M347.8,257.7c6.2-4,12.5-7.9,18.7-11.8c-6.2-2-12.5-4-18.7-5.9L347.8,257.7
					L347.8,257.7z"/>
				<path class="st0" d="M373.1,215c-0.1,0-0.2,0-0.4,0.1c-8.4,3.4-16.9,7-25.2,10.6c-0.1,0.1-0.3,0.2-0.3,0.4v1.5
					c15.2-0.9,30.5-1.6,45.7-1.9c-6.5-3.6-13-7.2-19.4-10.6C373.3,215,373.2,215,373.1,215L373.1,215z M347.2,201.2v19.5
					c6.7-3,13.7-5.9,20.6-8.8C360.9,208.4,354,204.7,347.2,201.2L347.2,201.2z M347.2,239.2l0,19.5c6.9-4.4,13.8-8.7,20.6-12.9
					C360.9,243.5,354,241.3,347.2,239.2L347.2,239.2z M392.9,230.5c-15.2,0.3-30.5,0.9-45.6,1.9l-0.1,1.6c0,0.1,0.1,0.2,0.2,0.3
					c8.4,2.6,16.9,5.3,25.3,8.1c0.2,0.1,0.5,0,0.8-0.1C379.9,238.3,386.4,234.3,392.9,230.5L392.9,230.5z"/>
			</g>
			<g id="Cribl.wTagline.FULL_COLOR.LOCKUP">
				<g id="Cribl.COLOR.LOCKUP">
					<path id="Cribl.Logotype" d="M315.5,27.3l-1.1-1l-0.5,0.1l0.4,1.2l-0.6,0.2l-0.9-3.2l1.1-0.3c0.7-0.2,1.2-0.1,1.4,0.6
						c0.1,0.5,0,0.9-0.4,1.1l1.2,1.1L315.5,27.3L315.5,27.3z M313.8,26l0.5-0.1c0.4-0.1,0.6-0.4,0.5-0.8c-0.1-0.4-0.4-0.4-0.8-0.3
						l-0.5,0.1L313.8,26L313.8,26z M315.3,29c-1.7,0.5-3.5-0.5-4-2.1c-0.5-1.7,0.5-3.5,2.1-4c1.7-0.5,3.5,0.5,4,2.2
						C318,26.7,317,28.5,315.3,29z M313.6,23.3c-1.4,0.4-2.2,1.9-1.8,3.3c0.4,1.4,1.9,2.2,3.3,1.8s2.2-1.9,1.8-3.3
						C316.5,23.7,315,22.9,313.6,23.3z"/>
				</g>
			</g>
		</g>
		<g>
			<path d="M397.5,114.9c-2.7,1.7-5.2,3-6.8,6.4l0,0c0,0.1-0.1,0.1-0.1,0.2c0.3,0,0.6,0,1,0l0,0c0.1-0.1,0.3-0.3,0.4-0.4
				c0.3-0.3,0.4-0.5,0.6-0.7c2.5-3.2,6.4-5.1,10.5-4.8c0,0,0,0,0,0c0,0,0.1,0,0.1,0c0.1,0,0.2,0,0.3,0c0.1,0,0.2,0,0.3,0
				c-3.2,1.6-6.6,2.9-8.3,6.5c1.3,0.2,2.5,0.3,3.9,0.4c0.2,0,0.3,0.2,0.2,0.4c-0.4,0.6-0.7,1.2-1.2,1.7c-0.8,0.8-1.8,0.9-2.8,0.8
				c-0.2,0-0.5,0-0.7-0.1v0c-0.2,3.3,0.4,6.3,1.5,9.3c0.2,0.5,0.4,1.1,0.6,1.6c0.3,0.6,0.5,1.2,0.8,1.9c0,0,0,0,0,0.1
				c0.2,0.5,0.5,1,0.8,1.4c0.3,0.6,0.7,1.1,1.1,1.6c0.3,0.4,0.7,0.8,1.1,1.2l0,0c0.4,0.4,0.8,0.8,1.2,1.1c2.8,2.2,6.1,3,8.9,3.1
				c2.4,0.1,4.4-0.1,5.5-0.3c0,0,0.1,0,0.1,0c0.2,0,0.4,0.3,0.2,0.5l-2,2.8c-0.1,0.1-0.1,0.2-0.1,0.3c0.1,1.2,0.2,2.4,0,3.5
				c-0.2,1.6,0.2,3,1,4.3c0.5,0.8,1,1.5,1.5,2.2l0,0l0,0c0.4,0.4,0.4,0.8,0.3,1.4c-0.9,3-1.8,6.1-2.6,9.2c-0.3,1.1-0.5,2.2-0.7,3.3
				c-0.1,0.5-0.5,0.8-1,0.8l-0.9-0.1c-0.5,0-0.9-0.5-0.9-1l0,0c0.2-3.5,0.4-7,0.6-10.5c0-0.3-0.1-0.7-0.3-0.9
				c-1.6-1.3-3.3-2.6-4.9-3.9l0,0l2.6,4.2c0,0,0,0,0,0c0.4,0.6,0.5,0.9,0.2,1.6c0,0,0,0.1-0.1,0.1l-2.9,9.1c0,0,0,0.1,0,0.1
				c-0.1,0.5-0.6,0.8-1,0.8l-0.5,0c-0.2,0.1-0.4,0.1-0.5,0.1c-0.6,0-0.8-0.6-0.9-0.9c0-0.1,0-0.1,0-0.2c0-0.1,0-0.1,0-0.1l0.4-2.4
				c0.5-2.6,0.9-5.2,1.4-7.8c0,0,0-0.1,0-0.1c0-0.4-0.1-0.6-0.2-0.7c-0.1-0.1-0.1-0.1-0.2-0.2l0,0l0,0l0,0c-1.2-0.9-2.4-1.9-3.5-2.9
				c-0.3-0.2-0.5-0.6-0.6-0.9h0v0c-0.1-0.3-0.2-0.7-0.1-1.1c0.1-0.7,0.1-1.4,0.1-2.1v-0.1c-0.1,0-0.9,0.8-1.2,2.1
				c-0.8,5.4-1.4,10.8-2.1,16.2l0,0c-0.1,0.5-0.5,0.8-0.9,0.8l-0.7,0c-0.5,0-0.8-0.4-0.9-0.9c-0.2-7.1,0.4-12.6-3.1-19c0,0,0,0,0,0
				c0.2,0.6,0.4,1.6,0.5,2.8c0.8,6-0.1,10.4-0.5,16.5c0,0.3-0.2,0.5-0.5,0.4l-1.2-0.1c-0.3,0-0.5-0.3-0.5-0.5l0,0
				c-0.7-12.9-3.1-22.1-3.3-24.1c0-0.7-0.1-1.3-0.1-2c0-0.7,0-1.4,0-2c0-0.6,0.1-1.2,0.1-1.8c0.2-2.1,0.7-4.2,1.1-6.2
				c0.1-0.5,0.2-1,0.3-1.5c0,0,0-0.1,0-0.1c0-0.2,0.1-0.4,0.1-0.6c0-0.1,0-0.3-0.1-0.4c-0.1-0.1-0.1-0.1-0.2-0.1c0,0,0,0-0.1,0
				c-1.1,0.1-1.6,0.2-2.9,0.3c-0.3,0-0.5,0.1-0.8,0.1l-1.6,2.1c-0.1,0.1-0.2,0.1-0.2,0.1c-0.1,0-0.2-0.1-0.2-0.2l-0.4-1.7
				c0,0-0.1,0-0.1,0l0.1-0.1c-0.1,0-0.2,0-0.3,0c-0.6,0-1.2-0.5-1.4-1.1c-0.1-0.5-0.1-0.9,0.2-1.4l0,0c1.7-3.3,4-6.3,6.7-8.8
				c0.4-0.4,0.5-0.6,0.5-0.7c0.2-0.7,0.7-2.5,1.9-3.8C391.5,116.2,394.2,114.9,397.5,114.9 M387.2,138.7L387.2,138.7L387.2,138.7
				L387.2,138.7c-1.4,7-0.5,10.6-0.4,12.1c0.1,0,0.1,0.1,0.2,0.1l0.4,0l0,0c0.1,0,0.2-0.1,0.2-0.2l0-1.6c-0.2-4.3-0.1-5.8,0.8-10.4
				l0.4-2.2c0-0.1,0-0.1,0-0.1c0,0,0,0-0.1,0.1L387.2,138.7 M389.4,150.9c0.1,0,0.2-0.1,0.3-0.2l3.4-7.3c0-0.1,0-0.3,0-0.4l0,0
				l-3.1-6.5c0-0.1,0-0.1-0.1-0.1c0,0,0,0,0,0.1l-0.4,1.9c-0.9,3.9-1.1,7.9-0.6,11.8c0.1,0.4,0.1,0.6,0.1,0.6L389.4,150.9
				 M390.9,151C390.9,151,390.9,151,390.9,151l6,0.4l0,0c0.1,0,0.2-0.1,0.1-0.2l-3.2-6.7l0,0c0-0.1-0.1-0.1-0.1-0.1
				c0,0-0.1,0-0.1,0.1l-2.8,6.2C390.8,150.9,390.8,151,390.9,151C390.9,151,390.9,151,390.9,151 M397.6,113.4
				C397.6,113.4,397.6,113.4,397.6,113.4c-3.7,0-6.9,1.4-9.6,4.3c-1.4,1.4-1.9,3.3-2.2,4.1l-0.1,0.2c0,0-0.1,0.1-0.1,0.1
				c-2.8,2.6-5.2,5.7-7,9.2c0,0.1-0.1,0.1-0.1,0.2c-0.3,0.7-0.4,1.4-0.2,2.2c0.2,1,1,1.8,1.9,2.1l0.2,0.7c0.2,0.8,0.8,1.3,1.6,1.4
				c0.6,0,1.2-0.2,1.5-0.7l1.2-1.6l0.2,0l1.3-0.1l0,0.2l-0.1,0.4c-0.5,2.2-0.9,4.3-1.2,6.4c-0.1,0.6-0.1,1.3-0.1,1.9
				c0,0.7,0,1.4,0,2.1c0,0.7,0.1,1.4,0.1,2c0.1,0.6,0.2,1.6,0.6,3.2c0.8,4,2.2,11.4,2.7,20.7c0,0.5,0.1,1,0.5,1.3
				c0.4,0.4,0.9,0.7,1.4,0.7l1.2,0.1c1.1,0.1,2-0.8,2.1-1.8c0-0.5,0.1-1,0.1-1.5c0,0.4,0,0.8,0,1.2c0,1.3,1,2.3,2.3,2.3l0.7,0
				c1.2,0.1,2.4-0.8,2.5-2.1c0,0,0,0,0,0c0.2-1.3,0.3-2.6,0.5-4c0.4-2.9,0.8-5.9,1.1-8.9c1.1,1,2.2,1.8,3.2,2.6
				c-0.5,2.5-0.9,4.9-1.3,7.5l-0.4,2.4c0,0,0,0.1,0,0.1c0,0,0,0.1,0,0.2c0,0.2,0,0.3,0,0.5c0.2,1.3,1,2.1,2.2,2.2c0.2,0,0.5,0,0.7,0
				l0.3,0c1.2,0.1,2.3-0.7,2.6-1.9v-0.1l2.2-6.8c-0.1,1.4-0.2,2.9-0.3,4.3l-0.1,2.3c-0.1,1.4,0.9,2.5,2.3,2.6l0.9,0.1
				c1.2,0.1,2.3-0.8,2.5-1.9l0.1-0.5c0.2-0.9,0.4-1.8,0.6-2.7c0.8-2.9,1.6-5.8,2.6-9.1c0.3-1.1,0.1-1.9-0.5-2.8c0,0,0,0,0-0.1
				c0,0,0,0,0,0c-0.5-0.6-0.9-1.2-1.4-1.9c-0.7-1.1-0.9-2.1-0.8-3.2c0.2-1.1,0.1-2.3,0-3.4v-0.1l1.8-2.4c0.4-0.5,0.5-1.2,0.2-1.9
				c-0.3-0.6-0.9-1-1.5-1.1c-0.1,0-0.3,0-0.4,0c-0.9,0.2-2.9,0.5-5.1,0.3c-3.2-0.2-5.9-1.1-8.1-2.8c-0.4-0.3-0.8-0.6-1.1-1
				c0,0,0,0,0,0c-0.3-0.3-0.6-0.7-0.9-1c-0.4-0.4-0.7-0.9-1-1.4c-0.2-0.4-0.5-0.9-0.7-1.3c0,0,0-0.1,0-0.1c-0.3-0.7-0.6-1.2-0.8-1.8
				c-0.2-0.5-0.4-1-0.6-1.5c-1-2.6-1.5-4.9-1.5-7.2c1,0,2.2-0.3,3.2-1.3c0.5-0.5,0.8-1,1.1-1.5c0.1-0.1,0.1-0.2,0.2-0.4
				c0.3-0.5,0.4-1.1,0.1-1.7c-0.3-0.5-0.8-0.9-1.4-1l-1.4-0.2c1.4-1.6,3.4-2.5,5.4-3.5c0.3-0.2,0.7-0.3,1-0.5
				c0.6-0.3,0.9-0.9,0.8-1.6c-0.1-0.7-0.7-1.2-1.3-1.2l-0.3,0c-0.1,0-0.2,0-0.4,0h-0.1c-1.4-0.1-2.8,0-4.1,0.4
				C398.8,113.9,398.3,113.5,397.6,113.4L397.6,113.4L397.6,113.4z M390,146.4c0-1.8,0.1-3.6,0.4-5.4l1.1,2.2L390,146.4L390,146.4z
				 M393,149.7l0.8-1.7l0.9,1.9L393,149.7L393,149.7z"/>
			<g>
				<path class="st2" d="M393.1,143.1L393.1,143.1l-3.1-6.5c-0.1-0.1-0.1-0.1-0.1,0l-0.4,1.9c-0.9,3.9-1.1,7.9-0.6,11.8
					c0.1,0.4,0.1,0.6,0.1,0.6l0.4,0c0.1,0,0.2-0.1,0.3-0.2l3.4-7.3C393.1,143.3,393.1,143.2,393.1,143.1L393.1,143.1z"/>
				<path class="st2" d="M397,151.3l-3.2-6.7l0,0c-0.1-0.1-0.1-0.1-0.2,0l-2.8,6.2c0,0.1,0,0.1,0,0.2c0,0,0.1,0,0.1,0l6,0.4
					C397,151.5,397.1,151.4,397,151.3L397,151.3z"/>
				<path class="st2" d="M388.8,136.5l-1.6,2.3l0,0l0,0l0,0c-1.4,7-0.5,10.6-0.4,12.1c0.1,0,0.1,0.1,0.2,0.1l0.4,0
					c0.1,0,0.2-0.1,0.2-0.2l0-1.6c-0.2-4.3-0.1-5.8,0.8-10.4L388.8,136.5C388.9,136.4,388.9,136.4,388.8,136.5L388.8,136.5z"/>
			</g>
		</g>
	</g>
</g>
</svg>
